<ttFont>
          <CharString index="0">
            -84 callsubr
            -52 callgsubr
            -105 callsubr
            return
          </CharString>
          <CharString index="1">
            -76 callgsubr
            -52 callsubr
            306 -235 210 -306 -59 callsubr
            vhcurveto
            -13 callgsubr
            -97 callgsubr
            -50 callgsubr
            vhcurveto
            return
          </CharString>
          <CharString index="2">
            418 -347 295 -418 -78 callgsubr
            vhcurveto
            -81 callgsubr
            324 263 -253 -324 -59 callgsubr
            -72 callgsubr
            vhcurveto
            return
          </CharString>
          <CharString index="3">
            -71 callsubr
            190 13 rmoveto
            -70 callgsubr
            -181 vlineto
            -35 vlineto
            -73 -65 -125 -80 -149 hhcurveto
            -88 -80 48 88 hvcurveto
            return
          </CharString>
          <CharString index="4">
            25 1 callsubr
            hlineto
            145 310 rlineto
            709 hlineto
            134 -310 rlineto
            202 hlineto
            -613 1416 rlineto
            -105 hlineto
            -248 -938 rmoveto
            149 318 rlineto
            return
          </CharString>
          <CharString index="5">
            hmoveto
            -107 callgsubr
            endchar
          </CharString>
          <CharString index="6">
            153 653 rmoveto
            -418 216 -255 7 callgsubr
            216 267 436 vhcurveto
            733 -185 -763 vlineto
            -314 -135 -193 6 callsubr
            -143 213 324 vhcurveto
            733 -185 vlineto
            return
          </CharString>
          <CharString index="7">
            rmoveto
            -107 callgsubr
            return
          </CharString>
          <CharString index="8">
            79 -299 rmoveto
            -32 -145 rlineto
            -33 43 32 -10 55 hhcurveto
            187 135 175 312 123 hvcurveto
            395 1000 rlineto
            -182 hlineto
            -215 -552 rlineto
            -52 -133 -33 -112 0 vvcurveto
            -10 hlineto
            0 -33 138 -45 116 vhcurveto
            -210 543 rlineto
            -197 hlineto
            398 -1020 -10 -26 rlineto
            -151 -59 -65 -121 -107 hhcurveto
            -43 -40 6 13 -35 hvcurveto
            return
          </CharString>
          <CharString index="9">
            190 hintmask 11010100
            -106 callsubr
            hintmask 00101000
            return
          </CharString>
          <CharString index="10">
            72 155 54 153 11 50 rrcurveto
            12 hlineto
            7 -45 61 -185 64 -149 128 -297 rcurveline
            return
          </CharString>
          <CharString index="11">
            53 -142 rlineto
            30 74 120 22 71 hhcurveto
            163 103 -44 -158 4 hvcurveto
            return
          </CharString>
          <CharString index="12">
            185 hintmask 11010100
            -101 callsubr
            hintmask 00101000
            return
          </CharString>
          <CharString index="13">
            293 167 301 -166 103 89 -398 261 -390 -264 rlineto
            endchar
          </CharString>
          <CharString index="14">
            -90 callsubr
            -3 -33 -1 -11 hvcurveto
            return
          </CharString>
          <CharString index="15">
            rmoveto
            502 201 -89 137 -485 -230 rlineto
            endchar
          </CharString>
          <CharString index="16">
            rmoveto
            -94 callsubr
          </CharString>
          <CharString index="17">
            174 14 111 143 178 hhcurveto
            164 80 -114 -149 -10 return
          </CharString>
          <CharString index="18">
            -88 callsubr
            -507 190 519 vlineto
            -31 callgsubr
            -156 -127 -59 -60 -77 vhcurveto
            return
          </CharString>
          <CharString index="19">
            -58 callgsubr
            722 hlineto
            88 58 139 50 134 hhcurveto
            214 65 -139 -214 hvcurveto
            return
          </CharString>
          <CharString index="20">
            186 73 196 0 hvcurveto
            -96 59 rlineto
            0 -57 -111 -80 vhcurveto
            -60 -72 111 -108 hhcurveto
            return
          </CharString>
          <CharString index="21">
            196 hintmask 11101010
            -102 callgsubr
            hintmask 00010100
            return
          </CharString>
          <CharString index="22">
            -96 -28 callgsubr
            -122 -21 512 149 202 160 return
          </CharString>
          <CharString index="23">
            -49 callsubr
            -418 347 -295 418 return
          </CharString>
          <CharString index="24">
            163 481 rmoveto
            -330 110 -171 330 152 112 59 58 70 vhcurveto
            return
          </CharString>
          <CharString index="25">
            133 21 -21 310 168 676 262 0 -20 return
          </CharString>
          <CharString index="26">
            rmoveto
            -84 callgsubr
            91 -51 rcurveline
            -92 callgsubr
            vhcurveto
            endchar
          </CharString>
          <CharString index="27">
            -185 -4 -29 callsubr
            hintmask 00000000
            hintmask 01110000
            -29 callgsubr
            hintmask 10110000
            -79 callgsubr
            return
          </CharString>
          <CharString index="28">
            314 255 233 314 return
          </CharString>
          <CharString index="29">
            67 57 43 69 42 -29 34 -23 14 hvcurveto
            5 78 58 133 36 49 -91 51 rcurveline
            -68 -61 -136 -192 -134 vvcurveto
            -69 51 -57 73 vhcurveto
            return
          </CharString>
          <CharString index="30">
            143 24 88 190 135 hhcurveto
            43 55 -14 -22 39 hvcurveto
            43 199 rlineto
            23 -50 -33 7 -55 hhcurveto
            -133 -97 -96 -107 -60 hvcurveto
            return
          </CharString>
          <CharString index="31">
            -32 143 rlineto
            -37 -86 -138 -31 -117 hhcurveto
            return
          </CharString>
          <CharString index="32">
            -32 callsubr
            -88 callsubr
            1 -507 rlineto
            189 519 hlineto
            -31 callgsubr
            -146 -120 -51 -56 -78 vhcurveto
            return
          </CharString>
          <CharString index="33">
            rmoveto
            91 91 -333 286 -114 -117 rlineto
            endchar
          </CharString>
          <CharString index="34">
            -39 callgsubr
            -699 -1720 rmoveto
            33 -104 rlineto
            439 -203 177 203 177 151 -177 541 -177 hlineto
            -262 -541 rmoveto
            262 336 rlineto
            -336 vlineto
            return
          </CharString>
          <CharString index="35">
            rmoveto
            -39 callsubr
            -5 callgsubr
            -6 callsubr
            hvcurveto
            2 121 rmoveto
            -100 -64 70 100 -25 callgsubr
            hvcurveto
            return
          </CharString>
          <CharString index="36">
            -366 -6 -331 -99 -290 vvcurveto
            return
          </CharString>
          <CharString index="37">
            rmoveto
            124 111 88 124 130 -91 76 -130 -124 -110 -91 -124 -130 90 -73 130 hvcurveto
            14 101 rmoveto
            -70 -48 41 70 60 44 45 60 70 49 -44 -70 -60 -45 -42 -60 hvcurveto
            endchar
          </CharString>
          <CharString index="38">
            rmoveto
            0 57 111 80 vhcurveto
            60 72 -111 108 hhcurveto
            return
          </CharString>
          <CharString index="39">
            21 -55 callsubr
            return
          </CharString>
          <CharString index="40">
            -64 callgsubr
            hintmask 00010100
            -86 callgsubr
            hintmask 00100100
            -35 callsubr
          </CharString>
          <CharString index="41">
            -100 27 -10 75 117 vvcurveto
            return
          </CharString>
          <CharString index="42">
            99 35 50 78 85 vvcurveto
            156 -149 78 -156 -88 -125 -26 -37 -74 vhcurveto
            44 -129 rlineto
            29 56 92 17 77 hhcurveto
            76 72 -20 -76 -98 -91 -44 -98 -32 -92 3 0 hvcurveto
            -156 vlineto
            return
          </CharString>
          <CharString index="43">
            -191 -42 callgsubr
            317 156 return
          </CharString>
          <CharString index="44">
            280 1287 -90 callgsubr
            return
          </CharString>
          <CharString index="45">
            525 -65 callgsubr
            return
          </CharString>
          <CharString index="46">
            185 1416 -185 hlineto
            return
          </CharString>
          <CharString index="47">
            -200 -151 -153 -200 return
          </CharString>
          <CharString index="48">
            -302 -257 -226 -302 return
          </CharString>
          <CharString index="49">
            90 473 rmoveto
            -264 165 -229 264 332 155 210 332 vhcurveto
            894 -185 -914 vlineto
            -208 -73 -148 -208 -178 -92 174 178 vhcurveto
            return
          </CharString>
          <CharString index="50">
            73 0 -68 callgsubr
            return
          </CharString>
          <CharString index="51">
            -58 callgsubr
            -36 callsubr
            hlineto
            return
          </CharString>
          <CharString index="52">
            -21 1416 -20 return
          </CharString>
          <CharString index="53">
            rmoveto
            177 896 -165 hlineto
            -277 -149 52 -141 213 121 rlineto
            return
          </CharString>
          <CharString index="54">
            -294 -218 -228 -294 return
          </CharString>
          <CharString index="55">
            302 257 222 302 return
          </CharString>
          <CharString index="56">
            -7 -43 callgsubr
            return
          </CharString>
          <CharString index="57">
            -28 callgsubr
            -119 -30 callgsubr
            return
          </CharString>
          <CharString index="58">
            137 693 rmoveto
            return
          </CharString>
          <CharString index="59">
            160 720 160 return
          </CharString>
          <CharString index="60">
            559 hmoveto
            185 607 hlineto
            510 809 -40 callsubr
            522 -812 rlineto
            return
          </CharString>
          <CharString index="61">
            185 -49 callgsubr
            hintmask 00110000
            return
          </CharString>
          <CharString index="62">
            -42 callsubr
            610 190 return
          </CharString>
          <CharString index="63">
            -27 callgsubr
            1270 -20 return
          </CharString>
          <CharString index="64">
            121 176 30 55 95 return
          </CharString>
          <CharString index="65">
            184 190 return
          </CharString>
          <CharString index="66">
            184 -62 callgsubr
            1219 1 callgsubr
            return
          </CharString>
          <CharString index="67">
            rlineto
            -191 hlineto
            -410 -647 -413 647 rlineto
            -203 hlineto
            return
          </CharString>
          <CharString index="68">
            168 133 123 168 168 -131 121 -168 return
          </CharString>
          <CharString index="69">
            -21 478 168 602 168 return
          </CharString>
          <CharString index="70">
            hstemhm
            -35 callgsubr
            return
          </CharString>
          <CharString index="71">
            1000 -190 return
          </CharString>
          <CharString index="72">
            -186 -90 -164 0 hvcurveto
            endchar
          </CharString>
          <CharString index="73">
            -739 -19 callgsubr
            return
          </CharString>
          <CharString index="74">
            374 2 rmoveto
            -13 64 79 -9 83 hhcurveto
            330 244 220 330 290 -186 200 -290 return
          </CharString>
          <CharString index="75">
            hstem
            -45 callsubr
            vstem
            return
          </CharString>
          <CharString index="76">
            hstemhm
            -47 callgsubr
            return
          </CharString>
          <CharString index="77">
            87 54 123 50 134 hhcurveto
            190 109 -152 -190 -232 -134 -146 -232 return
          </CharString>
          <CharString index="78">
            139 -114 -30 callgsubr
            -10 callgsubr
            return
          </CharString>
          <CharString index="79">
            hmoveto
            553 hlineto
            448 308 283 448 426 -302 259 -426 hvcurveto
            -581 return
          </CharString>
          <CharString index="80">
            rmoveto
            423 -373 93 100 -296 318 301 337 -96 91 -425 -413 rlineto
            return
          </CharString>
          <CharString index="81">
            367 vlineto
            330 231 -199 -330 -334 -201 -217 -334 hvcurveto
            endchar
          </CharString>
          <CharString index="82">
            253 21 -38 callsubr
            return
          </CharString>
          <CharString index="83">
            40 21 -18 callgsubr
            return
          </CharString>
          <CharString index="84">
            205 24 136 -21 -130 vvcurveto
            -84 -77 -35 -94 -99 -101 28 38 -69 vhcurveto
            endchar
          </CharString>
          <CharString index="85">
            rmoveto
            390 264 -91 87 -293 -165 -301 164 -103 -89 rlineto
            endchar
          </CharString>
          <CharString index="86">
            rmoveto
            73 -50 50 -75 -73 -50 -50 -73 -75 50 -49 73 75 50 49 75 vhcurveto
            endchar
          </CharString>
          <CharString index="87">
            rmoveto
            -154 -36 -61 -93 -56 vhcurveto
            return
          </CharString>
          <CharString index="88">
            hstemhm
            25 1380 return
          </CharString>
          <CharString index="89">
            hstemhm
            112 190 return
          </CharString>
          <CharString index="90">
            148 255 144 238 146 hstemhm
            581 175 -147 177 return
          </CharString>
          <CharString index="91">
            168 -872 530 757 168 -757 382 852 168 return
          </CharString>
          <CharString index="92">
            212 280 212 return
          </CharString>
          <CharString index="93">
            hstemhm
            95 190 return
          </CharString>
          <CharString index="94">
            -51 callsubr
            17 callgsubr
            720 190 vstem
            return
          </CharString>
          <CharString index="95">
            15 callsubr
            478 return
          </CharString>
          <CharString index="96">
            hstem
            -47 callgsubr
            return
          </CharString>
          <CharString index="97">
            hstemhm
            163 190 return
          </CharString>
          <CharString index="98">
            160 720 -2 callsubr
            return
          </CharString>
          <CharString index="99">
            211 193 67 108 129 return
          </CharString>
          <CharString index="100">
            196 vstem
            return
          </CharString>
          <CharString index="101">
            -168 131 -119 168 return
          </CharString>
          <CharString index="102">
            -58 callgsubr
            494 hlineto
            return
          </CharString>
          <CharString index="103">
            147 -59 147 hstemhm
            return
          </CharString>
          <CharString index="104">
            -20 168 495 165 460 168 hstemhm
            return
          </CharString>
          <CharString index="105">
            160 -32 callsubr
            return
          </CharString>
          <CharString index="106">
            hhcurveto
            -190 -109 162 190 hvcurveto
            endchar
          </CharString>
          <CharString index="107">
            -32 183 rlineto
            -157 hlineto
            return
          </CharString>
          <CharString index="108">
            hmoveto
            190 return
          </CharString>
          <CharString index="109">
            -581 hlineto
            185 return
          </CharString>
          <CharString index="110">
            515 19 callgsubr
            return
          </CharString>
          <CharString index="111">
            hstemhm
            153 185 return
          </CharString>
          <CharString index="112">
            -29 99 rlineto
            -145 hlineto
            return
          </CharString>
          <CharString index="113">
            -314 -324 return
          </CharString>
          <CharString index="114">
            185 vstem
            return
          </CharString>
          <CharString index="115">
            hhcurveto
            -78 callgsubr
            return
          </CharString>
          <CharString index="116">
            hvcurveto
            -507 190 519 vlineto
            return
          </CharString>
          <CharString index="117">
            18 callsubr
            1248 -20 hstem
            return
          </CharString>
          <CharString index="118">
            21 -21 1248 168 hstem
            return
          </CharString>
          <CharString index="119">
            -497 -307 1897 hstem
            return
          </CharString>
          <CharString index="120">
            -65 -98 14 19 -81 hvcurveto
            endchar
          </CharString>
          <CharString index="121">
            196 hintmask 00000000
            return
          </CharString>
          <CharString index="122">
            -41 callgsubr
            185 return
          </CharString>
          <CharString index="123">
            98 846 hstem
            return
          </CharString>
          <CharString index="124">
            -465 -21 return
          </CharString>
          <CharString index="125">
            0 168 return
          </CharString>
        <CharString name=".notdef">
          10 0 138 725 137 hstem
          184 145 649 145 vstem
          -41 callgsubr
          939 1000 -939 hlineto
          473 -401 rmoveto
          -234 264 rlineto
          469 hlineto
          -563 -633 rmoveto
          537 vlineto
          239 -268 rlineto
          179 hmoveto
          231 259 rlineto
          -519 vlineto
          -553 -101 rmoveto
          232 260 232 -260 rlineto
          endchar
        </CharString>
        <CharString name=".null">
          -713 endchar
        </CharString>
        <CharString name="A">
          -82 callsubr
          -19 callsubr
          hintmask 00000000
          hintmask 11011000
          -103 callsubr
          hintmask 11101000
          -97 callsubr
          endchar
        </CharString>
        <CharString name="AE">
          821 18 callsubr
          109 168 253 168 382 168 hstem
          952 7 callsubr
          -65 hmoveto
          200 hlineto
          197 277 rlineto
          620 -277 1057 -16 callsubr
          -1037 hlineto
          -501 -971 rmoveto
          501 704 rlineto
          -704 vlineto
          endchar
        </CharString>
        <CharString name="Aacute">
          -82 callsubr
          142 338 -19 callsubr
          -845 574 -101 callgsubr
          hintmask 00001010
          -365 1060 -92 callsubr
        </CharString>
        <CharString name="Acircumflex">
          -82 callsubr
          139 351 -19 callsubr
          -1062 788 -101 callgsubr
          hintmask 00001010
          -563 1057 -91 callsubr
        </CharString>
        <CharString name="Adieresis">
          -82 callsubr
          176 212 -19 callsubr
          -1025 -15 callsubr
          -101 callgsubr
          hintmask 00001011
          -19 1094 -99 callgsubr
        </CharString>
        <CharString name="Agrave">
          -82 callsubr
          146 320 -19 callsubr
          -1049 569 -101 callgsubr
          hintmask 00001010
          -138 1064 -73 callgsubr
        </CharString>
        <CharString name="Aring">
          -82 callsubr
          118 103 200 103 -19 callsubr
          -892 118 227 118 hintmask 0000000000000000
          hintmask 1101001000000000
          -103 callsubr
          hintmask 1110001000000000
          -97 callsubr
          hintmask 0000110110000000
          -260 1036 -69 callgsubr
        </CharString>
        <CharString name="Atilde">
          -82 callsubr
          177 -4 callsubr
          25 1380 -1068 783 hintmask 00000000
          hintmask 11010010
          -103 callsubr
          hintmask 11100010
          -97 callsubr
          hintmask 00000000
          -555 1095 -64 callgsubr
          hintmask 00000101
          -86 callgsubr
          hintmask 00001001
          -35 callsubr
        </CharString>
        <CharString name="B">
          223 0 -68 callgsubr
          -31 callsubr
          698 196 -66 14 callsubr
          hintmask 11110100
          -41 callgsubr
          553 hlineto
          340 316 101 340 196 -129 140 -188 35 hvcurveto
          hintmask 11111000
          88 27 99 113 123 vvcurveto
          288 -270 53 -288 vhcurveto
          -521 hlineto
          185 -550 rmoveto
          382 307 vlineto
          168 223 -15 -168 -156 -188 -43 -156 hvcurveto
          -354 -698 rmoveto
          530 387 vlineto
          hintmask 11110100
          220 221 -49 -220 -216 -219 -45 -216 hvcurveto
          endchar
        </CharString>
        <CharString name="C">
          195 -65 callgsubr
          hstem
          -35 callgsubr
          vstem
          -84 callsubr
          -8 callsubr
          vhcurveto
          -75 callgsubr
        </CharString>
        <CharString name="CR">
          -713 endchar
        </CharString>
        <CharString name="Ccedilla">
          195 17 callsubr
          466 166 -134 -21 1279 -11 callgsubr
          470 15 callgsubr
          hintmask 11011100
          -49 callsubr
          hintmask 10111100
          -372 274 -274 354 -56 vhcurveto
          -28 -55 -37 -86 -14 -59 rrcurveto
          -57 callgsubr
          hintmask 11011100
          76 -52 52 -85 21 vhcurveto
          5 21 20 47 6 13 rrcurveto
          -1 9 9 0 10 hhcurveto
          -8 callsubr
          hvcurveto
          -75 callgsubr
        </CharString>
        <CharString name="D">
          303 18 callsubr
          1080 168 -11 callsubr
          928 -7 callsubr
          184 -28 callsubr
          hlineto
          185 -1248 rmoveto
          1080 -26 callsubr
        </CharString>
        <CharString name="E">
          -57 callsubr
          -11 callsubr
          vstem
          -91 callgsubr
          endchar
        </CharString>
        <CharString name="Eacute">
          -57 callsubr
          122 338 -31 callsubr
          99 574 -85 callgsubr
          hintmask 00010100
          356 -63 callgsubr
        </CharString>
        <CharString name="Ecircumflex">
          -57 callsubr
          119 351 -31 callsubr
          -38 788 -85 callgsubr
          hintmask 00010100
          238 119 -91 callsubr
        </CharString>
        <CharString name="Edieresis">
          -57 callsubr
          156 212 -31 callsubr
          -36 -15 callsubr
          -85 callgsubr
          hintmask 00010110
          747 156 -99 callgsubr
        </CharString>
        <CharString name="Egrave">
          -57 callsubr
          126 320 -31 callsubr
          47 569 -85 callgsubr
          hintmask 00010100
          735 126 -73 callgsubr
        </CharString>
        <CharString name="Eth">
          334 18 callsubr
          538 154 388 168 hstem
          285 185 928 -7 callsubr
          285 -28 callsubr
          -556 -258 -154 258 hlineto
          185 -538 rmoveto
          538 499 154 -499 388 -26 callsubr
        </CharString>
        <CharString name="Euro">
          400 -27 callgsubr
          298 154 197 154 321 166 hstem
          282 -7 callsubr
          65 444 rmoveto
          256 hlineto
          -282 93 254 -182 329 hhcurveto
          -8 callsubr
          hvcurveto
          -24 callgsubr
          -222 -170 119 179 -85 hvcurveto
          709 hlineto
          20 154 rlineto
          -778 hlineto
          -8 40 -3 42 43 vvcurveto
          24 1 24 3 24 vhcurveto
          805 hlineto
          20 154 rlineto
          -789 hlineto
          193 74 172 128 233 hhcurveto
          -54 callgsubr
          -345 -257 -192 -295 -93 hvcurveto
          -195 hlineto
          -20 -154 rlineto
          183 hlineto
          -4 -33 -2 -34 -35 vvcurveto
          -33 2 -31 3 -31 vhcurveto
          -202 hlineto
          endchar
        </CharString>
        <CharString name="F">
          -49 21 -38 callsubr
          -11 callsubr
          vstem
          -12 callsubr
          697 168 -697 602 772 168 -957 hlineto
          endchar
        </CharString>
        <CharString name="G">
          407 -27 callgsubr
          -125 -21 479 168 623 -11 callgsubr
          1002 185 hintmask 00000000
          hintmask 10111100
          -49 callsubr
          -420 322 -293 420 215 160 84 73 81 vhcurveto
          hintmask 01111100
          -137 185 647 -676 -168 491 -153 vlineto
          hintmask 10111100
          -92 -81 -149 -88 -188 hhcurveto
          -340 -244 237 340 -79 callsubr
          176 161 -63 -89 100 hvcurveto
          104 142 rlineto
          112 -133 -183 64 -207 8 callsubr
          hvcurveto
          endchar
        </CharString>
        <CharString name="H">
          310 21 -21 479 168 769 -20 -11 callsubr
          869 7 callsubr
          15 callsubr
          479 869 -479 185 1416 -185 -769 -869 769 -185 hlineto
          endchar
        </CharString>
        <CharString name="I">
          -44 callgsubr
          -11 callsubr
          vstem
          -66 callgsubr
          endchar
        </CharString>
        <CharString name="IJ">
          131 -27 callgsubr
          -125 -55 callsubr
          -31 callsubr
          690 185 hintmask 00000000
          hintmask 10111000
          632 254 rmoveto
          -170 27 102 -104 144 hhcurveto
          218 121 129 275 hvcurveto
          1032 -185 -1062 vlineto
          -139 -31 -69 -103 -80 -44 57 96 -25 vhcurveto
          hintmask 01111000
          -592 -299 rmoveto
          -61 callsubr
          endchar
        </CharString>
        <CharString name="Iacute">
          -44 callgsubr
          142 338 hstemhm
          30 574 -420 -46 callsubr
          -82 -63 callgsubr
        </CharString>
        <CharString name="Icircumflex">
          -44 callgsubr
          139 351 hstemhm
          -117 788 -487 -46 callsubr
          -210 119 -91 callsubr
        </CharString>
        <CharString name="Idieresis">
          -44 callgsubr
          176 212 hstemhm
          -75 212 47 185 48 212 -49 callgsubr
          hintmask 00110100
          339 156 -99 callgsubr
        </CharString>
        <CharString name="Igrave">
          -44 callgsubr
          146 320 hstemhm
          -63 569 -322 -46 callsubr
          256 126 -73 callgsubr
        </CharString>
        <CharString name="Itilde">
          -44 callgsubr
          177 -4 callsubr
          -126 783 -473 185 hintmask 11000100
          -66 callgsubr
          hintmask 00000000
          -205 157 -64 callgsubr
          hintmask 00011000
          -86 callgsubr
          hintmask 00101000
          -35 callsubr
        </CharString>
        <CharString name="J">
          -107 -44 callsubr
          hstem
          90 180 551 7 callsubr
          -58 callsubr
          endchar
        </CharString>
        <CharString name="Jcircumflex">
          -107 -44 callsubr
          139 351 hstemhm
          90 180 248 788 -485 185 hintmask 11010100
          -58 callsubr
          hintmask 00101000
          339 1037 -91 callsubr
        </CharString>
        <CharString name="K">
          107 21 -21 1416 -20 -4 callgsubr
          hmoveto
          190 625 hlineto
          715 -625 rlineto
          292 hlineto
          -803 682 770 734 rlineto
          -239 hlineto
          -735 -705 rlineto
          705 1 callgsubr
          endchar
        </CharString>
        <CharString name="L">
          -89 10 callsubr
          184 7 callsubr
          -41 callgsubr
          957 168 -772 1248 -185 hlineto
          endchar
        </CharString>
        <CharString name="Lslash">
          31 10 callsubr
          304 7 callsubr
          304 hmoveto
          957 168 -772 418 hlineto
          530 237 -62 141 -468 -209 rlineto
          661 -185 -744 vlineto
          -281 -125 62 -141 219 98 rlineto
          endchar
        </CharString>
        <CharString name="M">
          650 21 -21 1415 -20 hstem
          177 1593 vstem
          177 hmoveto
          179 hlineto
          80 1056 513 -577 rlineto
          20 hlineto
          529 586 91 -1065 rlineto
          181 hlineto
          -120 1415 rlineto
          -59 hlineto
          -624 -685 -625 685 rlineto
          -55 hlineto
          endchar
        </CharString>
        <CharString name="N">
          310 0 callgsubr
          184 165 909 165 vstem
          -41 callgsubr
          165 1126 hlineto
          919 -1126 rlineto
          155 1416 -165 -1118 hlineto
          -912 1118 rlineto
          -162 hlineto
          endchar
        </CharString>
        <CharString name="Nacute">
          310 -68 callsubr
          142 338 hstemhm
          184 165 187 574 148 165 hintmask 11010100
          -41 callgsubr
          165 1126 hlineto
          919 -1126 rlineto
          155 1416 -165 -1118 hlineto
          -912 1118 rlineto
          -162 hlineto
          hintmask 00101000
          424 -63 callgsubr
        </CharString>
        <CharString name="Ntilde">
          310 -68 callsubr
          177 -4 callsubr
          184 165 52 783 74 165 hintmask 11001010
          -41 callgsubr
          165 1126 hlineto
          919 -1126 rlineto
          155 1416 -165 -1118 hlineto
          -912 1118 rlineto
          -162 hlineto
          hintmask 00000000
          322 157 -67 callsubr
        </CharString>
        <CharString name="O">
          -22 callgsubr
          -107 callsubr
          endchar
        </CharString>
        <CharString name="OE">
          955 -27 callgsubr
          -146 -68 callgsubr
          -146 -11 callgsubr
          753 185 hintmask 00000000
          hintmask 10101110
          -84 callsubr
          vhcurveto
          hintmask 01110110
          65 63 7 13 60 hvcurveto
          1053 -16 callsubr
          -1019 hlineto
          hintmask 01101110
          13 -59 -62 7 -63 hhcurveto
          hintmask 10101110
          -78 callgsubr
          hvcurveto
          -81 callgsubr
          vhcurveto
          hintmask 01101110
          64 62 -10 -19 58 hvcurveto
          -1073 vlineto
          hintmask 10110110
          -15 -53 -55 -7 -58 hhcurveto
          hintmask 10101110
          -72 callgsubr
          hvcurveto
          endchar
        </CharString>
        <CharString name="Oacute">
          -62 callsubr
          102 338 -37 callsubr
          311 574 271 -98 callgsubr
          383 815 -92 callsubr
        </CharString>
        <CharString name="Ocircumflex">
          -62 callsubr
          99 351 -37 callsubr
          184 788 184 -98 callgsubr
          275 812 -91 callsubr
        </CharString>
        <CharString name="Odieresis">
          -62 callsubr
          136 212 -37 callsubr
          226 -15 callsubr
          226 196 hintmask 11010010
          -107 callsubr
          hintmask 00101100
          824 849 -99 callgsubr
        </CharString>
        <CharString name="Ograve">
          -62 callsubr
          106 320 -37 callsubr
          318 569 269 -98 callgsubr
          821 819 -73 callgsubr
        </CharString>
        <CharString name="Oslash">
          -22 callgsubr
          258 -30 rmoveto
          134 -94 139 189 rlineto
          -55 110 127 -30 134 hhcurveto
          -52 callgsubr
          227 -103 191 -161 127 hvcurveto
          128 174 -134 94 -134 -181 rlineto
          52 -108 -123 29 -130 8 callsubr
          -224 99 -189 157 -127 hvcurveto
          115 156 rmoveto
          -108 104 -67 146 164 vvcurveto
          -79 callsubr
          97 91 -23 -41 81 vhcurveto
          -530 -992 rmoveto
          665 899 rlineto
          112 -104 71 -149 -167 vvcurveto
          -59 callgsubr
          -101 -95 24 44 -83 vhcurveto
          endchar
        </CharString>
        <CharString name="Otilde">
          -62 callsubr
          137 -4 callsubr
          137 196 175 783 198 196 hintmask 11001010
          -107 callsubr
          hintmask 00000000
          280 850 -67 callsubr
        </CharString>
        <CharString name="P">
          173 21 -21 310 168 770 168 -11 callsubr
          818 11 callgsubr
          310 348 hlineto
          372 294 209 372 360 -278 165 -360 hvcurveto
          -561 hlineto
          185 -938 rmoveto
          770 347 vlineto
          260 211 -109 -260 -264 -181 -137 -264 hvcurveto
          endchar
        </CharString>
        <CharString name="Q">
          526 17 -21 1274 166 hstem
          -35 callgsubr
          1156 -7 callsubr
          -49 callsubr
          -383 291 -279 370 -44 vhcurveto
          421 -316 200 83 -351 242 rlineto
          355 66 262 282 379 vvcurveto
          -105 callsubr
          endchar
        </CharString>
        <CharString name="R">
          -25 callsubr
          -11 callsubr
          858 196 vstem
          -102 callgsubr
          endchar
        </CharString>
        <CharString name="Racute">
          -25 callsubr
          122 338 -31 callsubr
          139 574 145 -86 callsubr
          -182 892 -92 callsubr
        </CharString>
        <CharString name="Rcaron">
          -25 callsubr
          119 351 -31 callsubr
          -104 788 174 -86 callsubr
          -99 889 -22 callsubr
        </CharString>
        <CharString name="Rcommaaccent">
          253 17 callsubr
          507 -38 callsubr
          -31 callsubr
          392 7 459 196 hintmask 01111010
          -102 callgsubr
          hintmask 10000100
          -163 -764 -77 callgsubr
        </CharString>
        <CharString name="S">
          162 -21 169 496 178 443 171 hstem
          160 199 763 202 vstem
          135 161 rmoveto
          -117 158 215 -65 206 hhcurveto
          314 296 143 314 hvcurveto
          530 -965 -258 340 vvcurveto
          154 200 63 154 156 181 -46 -76 125 vhcurveto
          68 163 rlineto
          95 -175 -143 35 -194 hhcurveto
          -272 -299 -146 -272 hvcurveto
          -510 962 260 -363 vvcurveto
          -198 -198 -59 -198 -160 -193 75 96 -150 vhcurveto
          endchar
        </CharString>
        <CharString name="T">
          86 11 callsubr
          599 7 callsubr
          599 hmoveto
          185 1248 532 168 -1249 -168 532 hlineto
          endchar
        </CharString>
        <CharString name="Thorn">
          143 21 -21 240 168 645 168 195 -20 -11 callsubr
          768 11 callgsubr
          240 298 hlineto
          352 314 153 352 352 -286 124 -352 hvcurveto
          -326 195 -185 hlineto
          185 -1008 rmoveto
          645 297 vlineto
          240 231 -80 -240 -240 -205 -85 -240 hvcurveto
          endchar
        </CharString>
        <CharString name="U">
          -38 callgsubr
          hstem
          153 185 916 7 callsubr
          -101 callsubr
          endchar
        </CharString>
        <CharString name="Uacute">
          -38 callgsubr
          142 338 4 callsubr
          301 574 41 -95 callsubr
          558 -63 callgsubr
        </CharString>
        <CharString name="Ucircumflex">
          -38 callgsubr
          139 351 4 callsubr
          64 788 64 -95 callsubr
          340 119 -91 callsubr
        </CharString>
        <CharString name="Udieresis">
          -38 callgsubr
          176 212 4 callsubr
          106 -15 callsubr
          106 185 hintmask 11010010
          -101 callsubr
          hintmask 00101100
          889 156 -99 callgsubr
        </CharString>
        <CharString name="Ugrave">
          -38 callgsubr
          146 320 4 callsubr
          62 569 285 -95 callsubr
          750 126 -73 callgsubr
        </CharString>
        <CharString name="V">
          166 1 -21 -3 callgsubr
          25 1388 vstem
          675 -20 rmoveto
          88 hlineto
          650 1436 rlineto
          -196 hlineto
          -374 -826 rlineto
          -67 -147 -47 -152 0 vvcurveto
          -9 hlineto
          0 -53 164 -67 148 vhcurveto
          -368 813 rlineto
          -207 hlineto
          endchar
        </CharString>
        <CharString name="W">
          821 1 -21 -3 callgsubr
          47 2024 vstem
          645 -20 rmoveto
          57 hlineto
          289 803 rlineto
          30 84 45 153 0 vvcurveto
          6 hlineto
          0 47 -152 33 -86 vhcurveto
          304 -802 rlineto
          57 hlineto
          558 1436 rlineto
          -215 hlineto
          -255 -703 rlineto
          -51 -140 -59 -201 0 vvcurveto
          -9 hlineto
          0 -59 189 -56 149 vhcurveto
          -267 706 rlineto
          -57 hlineto
          -259 -721 rlineto
          -59 -165 -45 -158 0 vvcurveto
          -9 hlineto
          -30 83 -29 93 -61 151 -289 717 rcurveline
          -215 hlineto
          endchar
        </CharString>
        <CharString name="X">
          146 0 callgsubr
          43 1357 vstem
          43 hmoveto
          221 hlineto
          444 572 449 -572 rlineto
          243 hlineto
          -571 728 535 688 rlineto
          -221 hlineto
          -425 -547 -428 547 rlineto
          -243 hlineto
          550 -702 rlineto
          endchar
        </CharString>
        <CharString name="Y">
          -6 0 callgsubr
          559 7 callsubr
          -47 callsubr
          endchar
        </CharString>
        <CharString name="Yacute">
          -6 -68 callsubr
          142 338 hstemhm
          378 574 -393 185 hintmask 11001000
          -47 callsubr
          hintmask 00110000
          -109 934 -92 callsubr
        </CharString>
        <CharString name="Z">
          21 18 callsubr
          1081 168 hstem
          107 1104 vstem
          107 hmoveto
          1104 168 -873 hlineto
          873 1081 rlineto
          168 -1104 -168 873 vlineto
          -873 -1081 rlineto
          endchar
        </CharString>
        <CharString name="a">
          -85 callsubr
          -18 callsubr
          507 -55 callgsubr
          hintmask 10111100
          -93 callgsubr
          hintmask 01111100
          -105 callgsubr
          hintmask 10111100
          -104 callsubr
          endchar
        </CharString>
        <CharString name="aacute">
          -85 callsubr
          125 376 -18 callsubr
          149 449 -91 -104 callgsubr
          242 869 -89 callgsubr
        </CharString>
        <CharString name="acircumflex">
          -85 callsubr
          125 381 -18 callsubr
          -9 618 -102 -104 callgsubr
          82 869 -95 callgsubr
        </CharString>
        <CharString name="acute">
          -699 1145 376 hstem
          86 449 vstem
          179 1145 -89 callgsubr
        </CharString>
        <CharString name="acute.cap">
          -699 1538 338 hstem
          51 574 vstem
          123 1538 -92 callsubr
        </CharString>
        <CharString name="adieresis">
          -85 callsubr
          202 212 -18 callsubr
          -2 -23 callgsubr
          -95 14 callgsubr
          hintmask 1011010010000000
          -93 callgsubr
          hintmask 0111010010000000
          -105 callgsubr
          hintmask 1011010010000000
          -104 callsubr
          hintmask 0000101100000000
          496 946 -103 callgsubr
        </CharString>
        <CharString name="ae">
          512 -42 callgsubr
          -38 149 202 160 -156 156 hstemhm
          101 190 507 191 547 15 callgsubr
          hintmask 10101111
          101 -60 callgsubr
          165 196 149 99 91 103 vhcurveto
          -124 78 137 -66 200 hhcurveto
          -43 callsubr
          hvcurveto
          -76 callsubr
          hintmask 11001111
          -51 callgsubr
          695 hlineto
          9 55 12 77 59 vvcurveto
          286 -171 143 -232 -153 -130 -60 -101 -92 vhcurveto
          113 -76 -139 48 -172 hhcurveto
          -99 -137 -20 -50 -102 hvcurveto
          hintmask 10110111
          -96 callsubr
          hintmask 10101111
          -71 callsubr
          hintmask 11001111
          888 284 rmoveto
          -90 callsubr
          -4 -33 -1 -11 hvcurveto
          -1240 -271 rmoveto
          hintmask 10101111
          -70 callgsubr
          -11 vlineto
          -67 6 -60 13 -55 vhcurveto
          -78 -59 -147 -98 -165 hhcurveto
          hintmask 11001111
          -75 -80 48 88 hvcurveto
          endchar
        </CharString>
        <CharString name="agrave">
          -85 callsubr
          128 377 -18 callsubr
          -22 447 82 -104 callgsubr
          334 872 -74 callsubr
        </CharString>
        <CharString name="ampersand">
          238 -19 166 1123 -11 callgsubr
          -12 196 639 187 hintmask 00000000
          hintmask 11101000
          137 387 rmoveto
          -272 236 -134 272 185 154 71 116 115 vhcurveto
          97 -73 95 -66 82 -58 123 141 rcurveline
          -77 58 -98 73 -104 80 rrcurveto
          82 141 44 172 178 vvcurveto
          -187 -2 rlineto
          -133 -26 -133 -53 -112 vhcurveto
          hintmask 11011000
          -281 227 -279 257 149 vvcurveto
          130 78 73 130 104 117 13 callgsubr
          94 -117 -134 42 -131 hhcurveto
          -250 -172 -149 -250 -70 33 -77 55 -82 hvcurveto
          hintmask 11101000
          -173 -105 -99 -133 -183 vvcurveto
          -17 callgsubr
          120 55 69 126 70 vhcurveto
          121 -136 164 -140 166 -130 rrcurveto
          -76 -77 -100 -47 -125 hhcurveto
          -168 -162 102 168 hvcurveto
          endchar
        </CharString>
        <CharString name="aring">
          -85 callsubr
          123 101 216 101 -18 callsubr
          73 116 223 116 -21 14 callgsubr
          hintmask 1011001001000000
          -93 callgsubr
          hintmask 0111001001000000
          -105 callgsubr
          hintmask 1011001001000000
          -104 callsubr
          hintmask 0000110110000000
          293 867 -70 callsubr
        </CharString>
        <CharString name="asciicircum">
          -9 -3 callgsubr
          65 1158 vstem
          176 632 rmoveto
          457 524 483 -531 107 98 -584 713 -574 -714 rlineto
          endchar
        </CharString>
        <CharString name="asciitilde">
          -9 855 156 25 156 hstemhm
          157 974 hintmask 00000000
          hintmask 10100000
          268 855 rmoveto
          hintmask 11100000
          0 68 181 120 vhcurveto
          106 76 -181 158 hhcurveto
          hintmask 10100000
          216 119 271 0 hvcurveto
          -111 56 rlineto
          0 -78 -171 -120 vhcurveto
          -106 -76 181 -158 hhcurveto
          hintmask 11100000
          -216 -109 -282 0 hvcurveto
          endchar
        </CharString>
        <CharString name="asterisk">
          -190 954 781 hstem
          488 130 vstem
          496 954 rmoveto
          114 hlineto
          16 264 237 -118 57 99 -221 146 221 146 -57 99 -237 -118 -16 263 rlineto
          -114 hlineto
          -16 -264 -236 118 -57 -98 219 -146 -219 -146 57 -98 236 117 rlineto
          endchar
        </CharString>
        <CharString name="at">
          635 -243 120 240 141 -141 146 509 147 246 131 hstemhm
          147 156 251 174 410 149 342 156 hintmask 0000000000000000
          hintmask 1101111110000000
          147 393 rmoveto
          -444 349 -192 444 vhcurveto
          39 120 rlineto
          -384 -292 162 384 376 383 366 406 304 233 -195 -304 -162 -94 -246 -162 -74 -27 78 112 23 hvcurveto
          89 435 rlineto
          -152 hlineto
          -13 -65 rlineto
          48 -37 -67 53 -116 hhcurveto
          -240 -205 -250 -240 hvcurveto
          hintmask 1011111110000000
          -178 109 -134 178 128 105 76 62 64 vhcurveto
          hintmask 1101111110000000
          -92 24 73 -46 102 hhcurveto
          268 180 312 268 372 -303 227 -372 -459 -504 -368 -535 hvcurveto
          hintmask 1011111110000000
          581 63 rmoveto
          138 95 178 138 104 85 -65 -37 40 vhcurveto
          -44 -222 -4 -14 -2 -13 -2 -12 rlinecurve
          -55 -50 -100 -91 -123 hhcurveto
          -96 -41 97 96 hvcurveto
          533 285 rmoveto
          1 hlineto
          endchar
        </CharString>
        <CharString name="atilde">
          -85 callsubr
          179 -14 callgsubr
          112 190 -66 733 -160 14 callgsubr
          hintmask 1011001010000000
          -93 callgsubr
          hintmask 0111001010000000
          -105 callgsubr
          hintmask 1011001010000000
          -104 callsubr
          hintmask 0000000000000000
          31 923 -69 callsubr
          hintmask 0000010100000000
          -87 callsubr
          hintmask 0000100100000000
          -34 callgsubr
        </CharString>
        <CharString name="b">
          -28 -20 -9 callsubr
          184 20 rmoveto
          -20 83 193 -20 90 hhcurveto
          330 294 210 330 290 -186 210 -290 -131 -114 -42 -59 -79 hvcurveto
          642 1 callgsubr
          190 -1387 rmoveto
          548 vlineto
          91 59 139 47 113 hhcurveto
          190 109 -162 -190 -232 -184 -136 -232 -62 -84 14 20 -48 hvcurveto
          endchar
        </CharString>
        <CharString name="backslash">
          5 callgsubr
          741 -467 rmoveto
          183 hlineto
          -668 2028 rlineto
          -183 hlineto
          endchar
        </CharString>
        <CharString name="bar">
          -744 -446 -21 -6 callgsubr
          -467 rmoveto
          167 2028 -167 hlineto
          endchar
        </CharString>
        <CharString name="braceleft">
          -564 569 129 hstem
          234 167 vstem
          234 6 rmoveto
          -176 115 -110 132 -50 vhcurveto
          75 112 rlineto
          -90 54 -65 70 130 vvcurveto
          326 vlineto
          141 -47 95 -98 44 vhcurveto
          98 45 47 98 140 vvcurveto
          330 vlineto
          129 44 73 94 52 vhcurveto
          -68 107 rlineto
          -147 -51 -90 -138 -202 vvcurveto
          -330 vlineto
          -120 -66 -77 -81 vhcurveto
          -129 vlineto
          82 65 -107 -130 hvcurveto
          endchar
        </CharString>
        <CharString name="braceright">
          -564 588 129 hstem
          318 167 vstem
          485 1280 rmoveto
          176 -115 110 -132 50 vhcurveto
          -75 -112 rlineto
          90 -54 65 -70 -130 vvcurveto
          -326 vlineto
          -141 47 -95 98 -44 vhcurveto
          -98 -45 -47 -98 -140 vvcurveto
          -330 vlineto
          -129 -44 -73 -94 -52 vhcurveto
          68 -107 rlineto
          147 51 90 138 202 vvcurveto
          330 vlineto
          120 66 77 81 vhcurveto
          129 vlineto
          -82 -65 107 130 hvcurveto
          endchar
        </CharString>
        <CharString name="bracketleft">
          -564 -331 169 1610 168 -6 callgsubr
          -331 rmoveto
          417 169 -250 1610 250 168 -417 hlineto
          endchar
        </CharString>
        <CharString name="bracketright">
          -564 -330 168 1610 169 hstem
          429 167 vstem
          596 1617 rmoveto
          -417 -169 250 -1610 -250 -168 417 hlineto
          endchar
        </CharString>
        <CharString name="brokenbar">
          -744 -446 -21 -6 callgsubr
          741 rmoveto
          167 820 -167 hlineto
          -1208 vmoveto
          -820 167 820 vlineto
          endchar
        </CharString>
        <CharString name="bullet">
          -675 367 407 hstem
          107 408 vstem
          312 367 rmoveto
          120 83 83 120 123 -83 81 -120 -123 -82 -81 -123 -120 82 -83 123 hvcurveto
          endchar
        </CharString>
        <CharString name="c">
          -307 -28 callgsubr
          724 156 17 callgsubr
          vstem
          95 498 rmoveto
          -314 179 -204 314 121 154 25 68 93 vhcurveto
          -35 141 rlineto
          -67 callgsubr
          endchar
        </CharString>
        <CharString name="caron">
          -699 1437 -20 hstem
          -11 618 vstem
          297 1145 -21 callgsubr
        </CharString>
        <CharString name="caron.cap">
          -1 callgsubr
          307 1535 -22 callsubr
        </CharString>
        <CharString name="ccedilla">
          -307 17 callsubr
          467 159 -134 -21 879 156 -14 callsubr
          261 15 callgsubr
          hintmask 11011100
          429 -209 rmoveto
          -36 callgsubr
          5 21 20 47 5 13 116 3 138 26 86 63 -35 141 rcurveline
          -67 callgsubr
          hintmask 10111100
          -286 148 -194 263 -33 vhcurveto
          hintmask 11011100
          -28 -54 -35 -83 -14 -57 rrcurveto
          endchar
        </CharString>
        <CharString name="cedilla">
          -699 17 callsubr
          492 -21 hstem
          261 177 vstem
          227 -3 rmoveto
          -28 -54 -40 -91 -15 -61 rrcurveto
          -36 callgsubr
          6 24 27 61 0 vvcurveto
          endchar
        </CharString>
        <CharString name="cent">
          -232 -96 1567 17 callgsubr
          280 153 vstem
          565 -96 rmoveto
          153 280 hlineto
          105 11 118 29 87 49 -36 143 rcurveline
          -81 -40 -102 -24 -91 -9 rrcurveto
          715 vlineto
          95 -11 90 -29 50 -26 46 153 rcurveline
          -63 35 -104 29 -114 8 rrcurveto
          254 -153 -256 vlineto
          -273 -33 -197 -198 -286 vvcurveto
          -303 182 -189 288 -24 vhcurveto
          166 vmoveto
          -172 33 -108 139 190 vvcurveto
          187 107 136 173 26 vhcurveto
          endchar
        </CharString>
        <CharString name="circumflex">
          -699 1145 381 hstem
          -11 618 vstem
          80 1145 -95 callgsubr
        </CharString>
        <CharString name="circumflex.cap">
          -1 callgsubr
          1535 vmoveto
          -94 callsubr
        </CharString>
        <CharString name="colon">
          -770 -13 247 333 10 callgsubr
          283 567 -90 callgsubr
          -125 -457 -80 callgsubr
        </CharString>
        <CharString name="comma">
          -71 callgsubr
        </CharString>
        <CharString name="commaaccent">
          -699 17 callsubr
          hstem
          400 7 vstem
          238 -118 -77 callgsubr
        </CharString>
        <CharString name="copyright">
          287 -20 121 176 124 395 121 175 120 hstem
          137 146 184 146 688 146 vstem
          137 583 rmoveto
          -353 294 -250 353 369 294 260 369 353 -294 250 -353 -369 -294 -260 -369 vhcurveto
          146 26 rmoveto
          277 225 206 276 285 232 -224 -285 -277 -225 -205 -276 -285 -232 224 284 vhcurveto
          184 -14 rmoveto
          -201 136 -117 201 86 103 33 32 43 vhcurveto
          -27 104 rlineto
          -33 -68 -63 -12 -60 hhcurveto
          -134 -71 70 133 124 68 68 124 59 56 -18 -25 45 hvcurveto
          51 110 rlineto
          35 -58 -68 19 -72 hhcurveto
          -197 -154 -126 -196 hvcurveto
          endchar
        </CharString>
        <CharString name="currency">
          -98 248 141 490 141 hstem
          199 171 458 171 vstem
          169 93 rmoveto
          195 219 rlineto
          -41 63 78 -23 87 hhcurveto
          88 82 26 45 67 hvcurveto
          201 -226 110 110 -222 198 rlineto
          51 64 30 81 91 vvcurveto
          91 -28 81 -48 63 vhcurveto
          217 192 -110 110 -196 -219 rlineto
          41 -63 -78 24 -87 hhcurveto
          -88 -81 -26 -46 -67 hvcurveto
          -201 226 -110 -110 222 -198 rlineto
          -52 -65 -30 -82 -91 vvcurveto
          -91 27 -80 48 -63 vhcurveto
          -215 -191 rlineto
          547 186 rmoveto
          -142 -94 106 142 132 90 110 132 142 94 -109 -142 -132 -90 -107 -132 hvcurveto
          endchar
        </CharString>
        <CharString name="d">
          -28 -28 callgsubr
          -119 -18 callgsubr
          -15 -20 -14 callsubr
          610 -55 callgsubr
          hintmask 10101100
          95 480 8 callgsubr
          153 116 56 59 71 vhcurveto
          hintmask 01011100
          29 -95 rlineto
          145 1561 -190 -556 hlineto
          hintmask 10101100
          9 -47 -54 6 -75 hhcurveto
          -330 -294 2 callgsubr
          184 136 232 62 68 -10 -14 64 vhcurveto
          -560 vlineto
          -87 -55 -123 -49 -133 -1 callsubr
        </CharString>
        <CharString name="degree">
          -559 856 121 338 121 hstem
          69 6 callgsubr
          vstem
          368 856 -72 callsubr
          endchar
        </CharString>
        <CharString name="dieresis">
          -699 1222 212 hstem
          -3 -23 callgsubr
          vstem
          495 1222 -103 callgsubr
        </CharString>
        <CharString name="dieresis.cap">
          -699 1572 212 hstem
          -53 -15 callsubr
          vstem
          545 1572 -99 callgsubr
        </CharString>
        <CharString name="divide">
          39 47 247 151 168 152 247 hstem
          544 248 vstem
          669 765 -90 callgsubr
          -462 -320 12 callgsubr
          337 -443 -80 callgsubr
        </CharString>
        <CharString name="dollar">
          -9 -96 1567 hstem
          146 198 221 153 245 198 vstem
          116 246 rmoveto
          114 -90 174 -63 161 -11 rrcurveto
          -178 153 183 vlineto
          230 29 213 124 232 vvcurveto
          231 -228 57 -215 42 vhcurveto
          357 vlineto
          97 -18 112 -41 93 -56 69 162 rcurveline
          -108 69 -131 44 -132 13 rrcurveto
          139 -153 -139 vlineto
          -214 -22 -205 -121 -212 vvcurveto
          -219 211 -58 208 -41 vhcurveto
          -405 vlineto
          -112 17 -135 54 -107 81 rrcurveto
          354 426 rmoveto
          -126 28 -95 39 92 vvcurveto
          114 106 48 115 12 vhcurveto
          153 -911 rmoveto
          374 vlineto
          137 -30 108 -39 -101 vvcurveto
          -128 -117 -59 -128 -17 vhcurveto
          endchar
        </CharString>
        <CharString name="dotlessi">
          -34 callsubr
          hstem
          184 190 vstem
          -56 callsubr
          endchar
        </CharString>
        <CharString name="dotlessj">
          -7 callgsubr
          hstem
          184 190 vstem
          -37 callgsubr
          endchar
        </CharString>
        <CharString name="e">
          -64 callsubr
          hstem
          95 191 547 177 vstem
          -106 callgsubr
          endchar
        </CharString>
        <CharString name="eacute">
          -64 callsubr
          125 376 16 callgsubr
          135 449 -37 -100 callgsubr
          -315 598 -89 callgsubr
        </CharString>
        <CharString name="ecircumflex">
          -64 callsubr
          125 381 16 callgsubr
          9 618 -80 -100 callgsubr
          -443 598 -95 callgsubr
        </CharString>
        <CharString name="edieresis">
          -64 callsubr
          202 212 16 callgsubr
          -35 -23 callgsubr
          -22 177 hintmask 11101001
          -106 callgsubr
          hintmask 00010110
          -80 675 -103 callgsubr
        </CharString>
        <CharString name="egrave">
          -64 callsubr
          128 377 16 callgsubr
          -3 447 103 -100 callgsubr
          -190 601 -74 callsubr
        </CharString>
        <CharString name="eight">
          35 -3 callsubr
          127 193 -152 195 600 9 callgsubr
          hintmask 11110010
          127 397 rmoveto
          -282 245 -135 282 272 279 154 272 169 -108 120 -171 49 vhcurveto
          5 vlineto
          hintmask 11101100
          154 54 79 127 132 vvcurveto
          242 -225 132 -262 -255 -249 -146 -244 -147 98 -122 115 -33 vhcurveto
          -6 vlineto
          hintmask 11110010
          -138 -49 -116 -135 -157 vvcurveto
          hintmask 11101100
          545 411 rmoveto
          -182 -127 72 182 140 151 66 140 170 139 -68 -150 -144 -154 -98 -137 hvcurveto
          hintmask 11110010
          -352 -402 rmoveto
          170 182 67 152 170 181 -76 -170 -174 -159 -75 -174 -185 -167 86 172 vhcurveto
          endchar
        </CharString>
        <CharString name="emdash">
          339 3 callsubr
          107 1422 vstem
          107 515 rmoveto
          1422 154 -1422 hlineto
          endchar
        </CharString>
        <CharString name="endash">
          259 3 callsubr
          267 1022 vstem
          267 515 rmoveto
          1022 154 -1022 hlineto
          endchar
        </CharString>
        <CharString name="equal">
          39 275 154 246 19 callgsubr
          207 922 vstem
          207 675 rmoveto
          922 154 -922 hlineto
          -554 vmoveto
          922 154 -922 hlineto
          endchar
        </CharString>
        <CharString name="eth">
          -7 -28 callgsubr
          670 160 450 -20 35 -20 -14 callsubr
          715 -55 callgsubr
          hintmask 11011100
          95 462 rmoveto
          -306 225 -176 306 349 215 260 381 261 -79 257 -194 183 vhcurveto
          158 113 -91 124 rlineto
          hintmask 11101100
          -194 -139 -103 64 -124 49 -150 28 rlinecurve
          -65 -165 109 -21 93 -31 78 -40 rlinecurve
          -171 -123 91 -124 216 155 109 -94 63 -119 34 -130 rlinecurve
          60 -80 -104 41 -142 hhcurveto
          hintmask 11011100
          -302 -247 -206 -302 hvcurveto
          -13 callgsubr
          200 141 136 200 155 121 -71 -85 97 vhcurveto
          -15 1 -14 -15 vvcurveto
          -286 -129 -184 -227 -212 -147 122 212 vhcurveto
          endchar
        </CharString>
        <CharString name="exclam">
          -695 -13 247 1181 -20 hstemhm
          177 248 -211 175 hintmask 00000000
          hintmask 11010000
          229 410 rmoveto
          145 hlineto
          30 1005 rlineto
          -205 hlineto
          hintmask 11100000
          -22 -1305 -80 callgsubr
        </CharString>
        <CharString name="exclamdown">
          -695 -409 20 1161 247 hstemhm
          163 248 -212 175 hintmask 00000000
          hintmask 11010000
          359 596 rmoveto
          -145 hlineto
          -30 -1005 rlineto
          205 hlineto
          hintmask 11100000
          22 1305 -21 callsubr
        </CharString>
        <CharString name="f">
          -521 21 -21 846 154 404 156 hstem
          204 191 vstem
          204 hmoveto
          191 846 386 154 -386 50 hlineto
          -46 callgsubr
          -38 -185 -154 185 vlineto
          endchar
        </CharString>
        <CharString name="five">
          -26 -20 168 531 168 401 168 hstem
          191 185 558 200 vstem
          113 89 rmoveto
          -70 113 136 -39 178 hhcurveto
          291 303 147 309 351 -375 98 -383 -50 hvcurveto
          413 670 168 -855 -765 vlineto
          456 76 287 -80 -220 vvcurveto
          -187 -167 -92 -198 -156 -139 46 61 -108 vhcurveto
          endchar
        </CharString>
        <CharString name="four">
          101 21 -21 340 168 908 -20 hstem
          844 7 callsubr
          131 340 rmoveto
          713 -340 185 340 280 168 -280 908 -185 hlineto
          -767 -910 rlineto
          205 2 rmoveto
          562 683 rlineto
          -683 vlineto
          endchar
        </CharString>
        <CharString name="g">
          -68 -487 160 665 148 385 149 hstemhm
          137 186 -161 190 -129 177 478 177 -118 -55 callgsubr
          hintmask 11101001
          162 -179 rmoveto
          -218 247 -90 218 246 254 157 246 vhcurveto
          hintmask 11110001
          346 -804 -161 192 vvcurveto
          44 20 43 28 33 vhcurveto
          -49 74 93 -26 94 hhcurveto
          hintmask 11100110
          218 205 126 218 50 -13 45 -21 41 hvcurveto
          52 26 83 17 48 4 8 155 rcurveline
          -99 -127 -37 -55 -58 hvcurveto
          59 -76 -103 33 -103 hhcurveto
          -218 -205 -129 -218 -60 17 -53 29 -45 hvcurveto
          hintmask 11110001
          -69 -61 -63 -102 -111 vvcurveto
          -93 59 -53 86 -33 vhcurveto
          hintmask 11101001
          -63 -59 -57 -90 -92 vvcurveto
          hintmask 11100110
          238 861 rmoveto
          124 109 65 124 132 113 -65 -132 -124 -109 -64 -124 -132 -113 64 132 vhcurveto
          hintmask 11101001
          -48 -837 rmoveto
          69 28 67 41 45 vhcurveto
          230 -38 286 13 -138 vvcurveto
          -135 -159 -55 -135 -124 -167 48 124 vhcurveto
          endchar
        </CharString>
        <CharString name="germandbls">
          -85 -464 -21 506 -21 852 148 404 156 hstem
          184 191 538 200 vstem
          -41 callgsubr
          191 852 506 hlineto
          -347 -429 rlineto
          -148 vlineto
          216 163 -68 -183 -201 -208 -102 -251 -63 hvcurveto
          57 -143 rlineto
          285 49 317 183 315 vvcurveto
          189 -171 136 -196 36 vhcurveto
          347 429 rlineto
          148 -718 50 vlineto
          -46 callgsubr
          endchar
        </CharString>
        <CharString name="grave">
          -706 1148 377 hstem
          60 447 vstem
          416 1148 -74 callsubr
        </CharString>
        <CharString name="grave.cap">
          -699 1542 320 hstem
          20 569 vstem
          523 1542 -73 callgsubr
        </CharString>
        <CharString name="greater">
          21 46 1334 hstem
          270 927 vstem
          1197 844 rmoveto
          -820 536 -106 -157 720 -476 -721 -553 113 -148 814 626 rlineto
          endchar
        </CharString>
        <CharString name="guillemotleft">
          -93 16 callsubr
          113 1017 vstem
          609 471 -27 callsubr
          -496 -60 -27 callsubr
          endchar
        </CharString>
        <CharString name="guillemotright">
          -93 16 callsubr
          96 1017 vstem
          617 571 -26 callgsubr
          496 60 -26 callgsubr
          endchar
        </CharString>
        <CharString name="guilsinglleft">
          -595 16 callsubr
          107 528 vstem
          107 471 rmoveto
          423 -373 99 106 -292 314 298 328 -103 98 -425 -413 rlineto
          endchar
        </CharString>
        <CharString name="guilsinglright">
          -595 16 callsubr
          89 528 vstem
          617 571 rmoveto
          -423 373 -99 -106 292 -314 -298 -328 103 -98 425 413 rlineto
          endchar
        </CharString>
        <CharString name="h">
          40 21 -21 860 160 -75 callsubr
          648 vlineto
          -190 1 rlineto
          endchar
        </CharString>
        <CharString name="hbar">
          -24 callsubr
          185 154 -75 callsubr
          292 281 154 -281 202 vlineto
          -190 1 rlineto
          -203 -179 -154 179 vlineto
          endchar
        </CharString>
        <CharString name="hyphen">
          -32 callgsubr
        </CharString>
        <CharString name="i">
          -34 callsubr
          307 247 hstemhm
          155 248 -48 callgsubr
          -1287 rmoveto
          190 -36 callsubr
          hlineto
          endchar
        </CharString>
        <CharString name="iacute">
          -34 callsubr
          165 18 callgsubr
          170 449 -435 -40 callgsubr
          79 145 -89 callgsubr
        </CharString>
        <CharString name="icircumflex">
          -34 callsubr
          165 381 hstemhm
          -30 618 -404 -40 callgsubr
          -123 145 -95 callgsubr
        </CharString>
        <CharString name="idieresis">
          -34 callsubr
          242 212 hstemhm
          -23 212 -5 190 -5 212 -45 callgsubr
          hintmask 00110100
          291 222 -103 callgsubr
        </CharString>
        <CharString name="igrave">
          -34 callsubr
          168 377 hstemhm
          -74 447 -189 -40 callgsubr
          98 148 -74 callsubr
        </CharString>
        <CharString name="ij">
          -195 -464 -21 506 -30 callgsubr
          307 247 hstemhm
          155 248 -219 190 305 268 -219 -55 callgsubr
          hintmask 01111000
          -63 callsubr
          hintmask 01110100
          -96 -1287 rmoveto
          190 -36 callsubr
          hlineto
          hintmask 00000000
          640 287 -90 callgsubr
          hintmask 10110010
          -96 -1372 -20 callsubr
          hintmask 10110001
          80 -129 rlineto
          hintmask 10110010
          -8 callgsubr
        </CharString>
        <CharString name="itilde">
          -34 callsubr
          219 -14 callgsubr
          -89 733 -460 190 hintmask 11000100
          -56 callsubr
          hintmask 00000000
          -176 199 -69 callsubr
          hintmask 00011000
          -87 callsubr
          hintmask 00101000
          -34 callgsubr
        </CharString>
        <CharString name="j">
          -7 callgsubr
          307 247 hstemhm
          135 268 -48 callgsubr
          -1372 -20 callsubr
          hintmask 11110000
          80 -129 rlineto
          hintmask 11101000
          -8 callgsubr
        </CharString>
        <CharString name="jcircumflex">
          -7 callgsubr
          165 381 hstemhm
          -30 618 -404 190 hintmask 11001000
          -37 callgsubr
          hintmask 00110000
          -123 145 -95 callgsubr
        </CharString>
        <CharString name="k">
          -80 callsubr
          1001 1 callgsubr
          endchar
        </CharString>
        <CharString name="kcommaaccent">
          -185 17 callsubr
          482 -29 callsubr
          271 7 hintmask 00000000
          hintmask 00111000
          -29 callgsubr
          hintmask 01011000
          -79 callgsubr
          1001 1 callgsubr
          hintmask 10000100
          299 -1679 -77 callgsubr
        </CharString>
        <CharString name="kgreenlandic">
          -80 callsubr
          440 1 callgsubr
          endchar
        </CharString>
        <CharString name="l">
          -741 18 -21 hstem
          184 190 vstem
          -41 callsubr
          endchar
        </CharString>
        <CharString name="ldot">
          -395 18 -21 599 278 -10 callgsubr
          165 279 hintmask 10100000
          -41 callsubr
          hintmask 01010000
          496 -965 rmoveto
          82 56 57 82 85 -56 54 -82 -85 -56 -54 -85 -82 56 -57 85 hvcurveto
          endchar
        </CharString>
        <CharString name="less">
          21 35 1334 hstem
          107 927 vstem
          107 571 rmoveto
          820 -536 106 157 -720 476 721 553 -113 148 -814 -626 rlineto
          endchar
        </CharString>
        <CharString name="logicalnot">
          38 555 168 hstem
          942 7 callsubr
          207 555 rmoveto
          735 -404 185 hlineto
          1 572 rlineto
          -921 hlineto
          endchar
        </CharString>
        <CharString name="lslash">
          -582 18 -21 hstem
          254 190 vstem
          254 -62 callgsubr
          352 vlineto
          240 107 -63 141 -177 -79 rlineto
          698 -190 -782 vlineto
          -193 -86 63 -141 130 58 rlineto
          endchar
        </CharString>
        <CharString name="m">
          605 21 -18 callgsubr
          -20 -20 -10 callgsubr
          500 190 485 -55 callgsubr
          hintmask 11011100
          -58 callgsubr
          718 hlineto
          86 56 109 56 106 -9 callgsubr
          72 -5 66 -12 59 vhcurveto
          87 55 111 57 107 -9 callgsubr
          314 -92 187 -314 -151 -124 -80 -74 -65 vhcurveto
          99 -61 -105 55 -169 hhcurveto
          -125 -106 -54 -61 -70 hvcurveto
          hintmask 10111100
          -28 95 rlineto
          -145 hlineto
          endchar
        </CharString>
        <CharString name="macron">
          -699 1260 140 hstem
          -23 644 vstem
          -23 1260 rmoveto
          644 140 -644 hlineto
          endchar
        </CharString>
        <CharString name="mu">
          20 -50 callsubr
          -10 callsubr
          590 -55 callgsubr
          hintmask 10111000
          326 50 rmoveto
          -47 71 95 -23 127 hhcurveto
          152 116 59 59 71 hvcurveto
          hintmask 01111000
          30 -98 rlineto
          145 -36 callsubr
          -718 hlineto
          hintmask 10111000
          -83 -56 -121 -59 -134 hhcurveto
          -218 -61 135 218 hvcurveto
          507 -190 -1335 191 136 vlineto
          71 -5 87 -23 91 vhcurveto
          endchar
        </CharString>
        <CharString name="multiply">
          39 98 863 hstem
          236 863 vstem
          236 216 rmoveto
          118 -118 307 307 308 -307 130 131 -307 307 307 307 -118 118 -307 -307 -307 307 -131 -130 307 -308 rlineto
          endchar
        </CharString>
        <CharString name="n">
          -24 callsubr
          -20 -20 hstemhm
          -45 callsubr
          hintmask 00000000
          hintmask 11011000
          -89 callsubr
          hintmask 10111000
          5 callsubr
          endchar
        </CharString>
        <CharString name="nacute">
          -24 callsubr
          -20 -20 165 376 -10 callgsubr
          146 449 15 -55 callgsubr
          hintmask 11001010
          -89 callsubr
          hintmask 10101010
          5 callsubr
          hintmask 00010100
          429 145 -89 callgsubr
        </CharString>
        <CharString name="nbspace">
          -713 endchar
        </CharString>
        <CharString name="nine">
          121 -20 164 380 168 578 166 hstem
          146 196 762 -7 callsubr
          1300 815 rmoveto
          374 -221 247 -374 -301 -258 -196 -301 -278 225 -137 278 167 164 48 65 111 vhcurveto
          -75 -511 -368 -61 -380 152 -48 -159 rcurveline
          403 -174 677 62 869 vvcurveto
          -196 25 rmoveto
          -17 vlineto
          -68 -94 -170 -63 -173 hhcurveto
          -178 -147 99 178 188 157 113 188 256 161 -174 -256 hvcurveto
          endchar
        </CharString>
        <CharString name="ntilde">
          -24 callsubr
          -20 -20 219 -14 callgsubr
          184 190 -74 733 -49 -55 callgsubr
          hintmask 11000101
          -89 callsubr
          hintmask 10100101
          5 callsubr
          hintmask 00000000
          213 199 -69 callsubr
          hintmask 00001010
          -87 callsubr
          hintmask 00010010
          -34 callgsubr
        </CharString>
        <CharString name="numbersign">
          292 2 -21 425 154 346 154 375 -20 hstem
          171 1247 vstem
          317 19 rmoveto
          153 -38 79 425 rlineto
          369 hlineto
          -71 -386 153 -39 78 425 rlineto
          340 154 -312 hlineto
          64 346 rlineto
          248 154 -220 hlineto
          62 337 -153 38 -69 -375 rlineto
          -368 hlineto
          63 336 -153 39 -70 -375 rlineto
          -339 -154 311 hlineto
          -65 -346 rlineto
          -246 -154 218 hlineto
          188 154 rmoveto
          65 346 rlineto
          368 hlineto
          -64 -346 rlineto
          endchar
        </CharString>
        <CharString name="o">
          -13 callsubr
          -106 callsubr
          endchar
        </CharString>
        <CharString name="oacute">
          -51 callsubr
          125 376 -14 callsubr
          207 449 64 -98 callsubr
          300 641 -89 callgsubr
        </CharString>
        <CharString name="ocircumflex">
          -51 callsubr
          125 381 -14 callsubr
          51 618 51 -98 callsubr
          142 641 -95 callgsubr
        </CharString>
        <CharString name="odieresis">
          -51 callsubr
          202 212 -14 callsubr
          58 -23 callgsubr
          58 190 hintmask 11010010
          -106 callsubr
          hintmask 00101100
          556 718 -103 callgsubr
        </CharString>
        <CharString name="oe">
          720 -42 callgsubr
          313 160 -156 156 -14 callsubr
          720 192 547 15 callgsubr
          hintmask 11101110
          -76 callgsubr
          177 161 76 124 104 vhcurveto
          -131 77 139 -69 205 hhcurveto
          -43 callsubr
          hvcurveto
          -88 callgsubr
          -82 callgsubr
          -177 -150 -83 -130 -91 vhcurveto
          133 -96 -162 80 -188 hhcurveto
          -59 callsubr
          hvcurveto
          1102 55 rmoveto
          hintmask 11011110
          -93 callsubr
          -1455 -43 rmoveto
          hintmask 11101110
          -97 callgsubr
          vhcurveto
          hintmask 11011110
          -50 callgsubr
          hvcurveto
          endchar
        </CharString>
        <CharString name="ograve">
          -51 callsubr
          128 377 -14 callsubr
          76 447 197 -98 callsubr
          432 644 -74 callsubr
        </CharString>
        <CharString name="one">
          -444 0 callgsubr
          484 7 callsubr
          484 hmoveto
          -61 callsubr
          -429 -230 54 -161 375 212 rlineto
          endchar
        </CharString>
        <CharString name="onehalf">
          634 -267 2028 -2027 152 617 144 219 896 hstemhm
          28 1738 -1440 177 1097 175 hintmask 10001000
          28 -39 callgsubr
          hintmask 00010100
          -1319 -895 -54 callsubr
          hintmask 00000000
          833 -1859 -74 callgsubr
          hintmask 01100010
          -216 -183 rlineto
          endchar
        </CharString>
        <CharString name="onequarter">
          574 -63 151 778 896 hstemhm
          326 177 915 177 50 127 hintmask 10011000
          28 -73 callsubr
          hintmask 01100000
          -1092 778 -54 callsubr
          endchar
        </CharString>
        <CharString name="onesuperior">
          -587 866 896 hstem
          326 177 vstem
          326 866 -54 callsubr
          endchar
        </CharString>
        <CharString name="ordfeminine">
          -364 796 130 267 119 125 129 hstem
          75 164 353 165 vstem
          344 796 rmoveto
          137 89 71 42 50 hvcurveto
          32 -68 62 -44 103 13 24 103 rcurveline
          -73 21 -11 46 87 vvcurveto
          235 vlineto
          185 -149 79 -185 -73 -103 -17 -35 -74 vhcurveto
          40 -116 rlineto
          22 54 88 17 53 hhcurveto
          115 61 -20 -105 7 hvcurveto
          -268 -6 -248 -76 -211 vvcurveto
          -141 129 -82 140 vhcurveto
          12 130 rmoveto
          -69 -48 33 69 129 157 26 196 10 hvcurveto
          -138 vlineto
          -22 vlineto
          -52 -47 -83 -55 -106 hhcurveto
          endchar
        </CharString>
        <CharString name="ordmasculine">
          -359 794 136 500 136 hstem
          69 166 468 166 vstem
          462 794 rmoveto
          223 184 166 223 226 -168 157 -225 -223 -184 -169 -223 -225 168 -155 225 hvcurveto
          14 136 rmoveto
          -145 -96 108 145 135 92 112 135 145 96 -111 -145 -135 -92 -109 -135 hvcurveto
          endchar
        </CharString>
        <CharString name="oslash">
          -13 callsubr
          147 -45 rmoveto
          120 -87 120 163 rlineto
          -33 74 84 -18 91 hhcurveto
          -52 callsubr
          163 -67 135 -108 92 hvcurveto
          100 136 -120 87 -107 -145 rlineto
          31 -71 -82 17 -86 hhcurveto
          -59 callsubr
          -159 63 -132 104 -90 hvcurveto
          110 150 rmoveto
          -55 63 -32 84 96 vvcurveto
          -61 callgsubr
          55 52 -11 -19 46 vhcurveto
          -298 -657 rmoveto
          419 571 rlineto
          59 -64 36 -87 -100 vvcurveto
          -60 callsubr
          -59 -55 12 21 -49 vhcurveto
          endchar
        </CharString>
        <CharString name="otilde">
          -51 callsubr
          179 -14 callgsubr
          95 190 -7 733 -6 190 hintmask 11001010
          -106 callsubr
          hintmask 00000000
          90 695 -69 callsubr
          hintmask 00010100
          -87 callsubr
          hintmask 00100100
          -34 callgsubr
        </CharString>
        <CharString name="p">
          -28 -446 -21 447 -48 callsubr
          -20 -20 hstemhm
          -45 callsubr
          hintmask 00000000
          hintmask 11101100
          -33 callsubr
          -154 -115 -57 -59 -72 hvcurveto
          hintmask 11011100
          -28 96 rlineto
          -145 -1467 190 hlineto
          640 vmoveto
          550 vlineto
          hintmask 11101100
          -30 callsubr
          hvcurveto
          hintmask 11011100
          13 callsubr
        </CharString>
        <CharString name="paragraph">
          -71 1285 130 hstem
          567 151 197 147 vstem
          567 -104 rmoveto
          151 1389 197 -1389 147 1519 -474 hlineto
          -240 -221 -115 -240 -240 200 -116 240 hvcurveto
          endchar
        </CharString>
        <CharString name="parenleft">
          12 callsubr
          137 184 vstem
          556 -307 rmoveto
          123 100 rlineto
          -206 216 -152 267 387 vvcurveto
          323 110 252 237 247 vhcurveto
          -99 105 rlineto
          -296 -252 -136 -331 -374 vvcurveto
          -408 158 -303 261 -229 vhcurveto
          endchar
        </CharString>
        <CharString name="parenright">
          12 callsubr
          481 184 vstem
          246 1590 rmoveto
          -123 -100 rlineto
          206 -216 152 -267 -387 vvcurveto
          -323 -110 -252 -237 -247 vhcurveto
          99 -105 rlineto
          296 252 136 331 374 vvcurveto
          408 -158 303 -261 229 vhcurveto
          endchar
        </CharString>
        <CharString name="percent">
          171 -20 121 -97 -21 456 121 296 121 338 121 hstemhm
          69 6 callgsubr
          130 6 callgsubr
          hintmask 0000000000000000
          hintmask 0111111110000000
          111 83 rmoveto
          121 -100 1135 1356 -121 100 rlineto
          -878 -583 -72 callsubr
          429 -710 rmoveto
          hintmask 1011111110000000
          -6 callsubr
          -39 callsubr
          vhcurveto
          hintmask 0111111110000000
          -5 callgsubr
          hvcurveto
          hintmask 1011111110000000
          137 4 rmoveto
          -25 callgsubr
          -100 -64 70 100 vhcurveto
          endchar
        </CharString>
        <CharString name="period">
          -770 -13 10 callgsubr
          158 110 -80 callgsubr
        </CharString>
        <CharString name="periodcentered">
          -735 396 309 hstem
          126 310 vstem
          282 396 rmoveto
          91 63 63 91 94 -63 61 -91 -94 -62 -61 -94 -91 62 -63 94 hvcurveto
          endchar
        </CharString>
        <CharString name="plus">
          39 446 168 386 -20 hstem
          575 7 callsubr
          207 446 rmoveto
          368 -386 -16 callgsubr
          hlineto
          endchar
        </CharString>
        <CharString name="plusminus">
          39 60 168 568 168 hstem
          575 7 callsubr
          575 410 rmoveto
          -16 callgsubr
          -168 368 hlineto
          -368 -736 12 callgsubr
          endchar
        </CharString>
        <CharString name="q">
          -28 -447 -21 447 -48 callsubr
          17 callgsubr
          610 190 vstem
          95 479 8 callgsubr
          130 115 42 59 79 vhcurveto
          -548 190 1410 vlineto
          45 -100 -137 32 -174 hhcurveto
          -330 -249 2 callgsubr
          139 136 232 97 87 -23 -29 55 vhcurveto
          -530 vlineto
          -91 -59 -139 -47 -113 -1 callsubr
        </CharString>
        <CharString name="question">
          -262 -13 247 1036 166 hstemhm
          317 248 -247 162 283 14 callsubr
          hintmask 11011000
          326 378 rmoveto
          162 32 rlineto
          -80 371 551 36 345 vvcurveto
          206 -228 68 -206 -147 -170 -37 -57 -126 vhcurveto
          44 -152 rlineto
          37 88 185 43 108 hhcurveto
          118 138 -21 -118 -216 -517 -89 80 -448 hvcurveto
          hintmask 11101000
          -9 -268 -80 callgsubr
        </CharString>
        <CharString name="questiondown">
          -262 -429 166 1036 247 hstemhm
          68 196 198 248 -163 162 hintmask 00000000
          hintmask 11101000
          701 629 rmoveto
          -162 -32 rlineto
          80 -371 -551 -36 -345 vvcurveto
          -206 228 -68 206 147 170 37 57 126 vhcurveto
          -44 152 rlineto
          -37 -88 -185 -43 -108 hhcurveto
          -118 -138 21 118 216 517 89 -80 448 hvcurveto
          hintmask 11110000
          9 268 -21 callsubr
        </CharString>
        <CharString name="quotedbl">
          -416 940 477 hstemhm
          165 551 hintmask 00000000
          hintmask 11000000
          552 940 -20 callgsubr
          -327 -477 -20 callgsubr
          endchar
        </CharString>
        <CharString name="quotedblbase">
          -416 -279 -12 callgsubr
          106 248 vstem
          466 -228 rmoveto
          91 -51 rlineto
          -87 callgsubr
          -307 350 -81 callsubr
        </CharString>
        <CharString name="quotedblleft">
          -416 -3 callgsubr
          120 248 106 248 vstem
          598 923 rmoveto
          -78 callsubr
          -354 hmoveto
          -78 callsubr
          endchar
        </CharString>
        <CharString name="quotedblright">
          -416 1436 -20 3 callgsubr
          106 248 vstem
          557 923 rmoveto
          -87 callgsubr
          -263 -51 rmoveto
          -87 callgsubr
          endchar
        </CharString>
        <CharString name="quoteleft">
          -770 1048 513 hstem
          120 248 vstem
          244 1048 rmoveto
          -78 callsubr
          endchar
        </CharString>
        <CharString name="quoteright">
          -770 1048 -12 callgsubr
          vstem
          203 1048 rmoveto
          -87 callgsubr
          endchar
        </CharString>
        <CharString name="quotesinglbase">
          -71 callgsubr
        </CharString>
        <CharString name="quotesingle">
          -773 939 477 hstemhm
          165 194 hintmask 00000000
          hintmask 11000000
          195 939 -20 callgsubr
          endchar
        </CharString>
        <CharString name="r">
          -447 21 -2 callgsubr
          hintmask 00000000
          hintmask 10110000
          -5 callsubr
          hintmask 11010000
          -77 callsubr
          hintmask 10110000
          0 callsubr
          endchar
        </CharString>
        <CharString name="rcaron">
          -447 21 -21 827 193 -20 -20 457 -20 hstemhm
          116 618 -550 -55 callgsubr
          hintmask 10100100
          -5 callsubr
          hintmask 11000100
          -77 callsubr
          hintmask 10100100
          0 callsubr
          hintmask 00011000
          240 145 -21 callgsubr
        </CharString>
        <CharString name="rcommaaccent">
          -447 17 callsubr
          507 -2 callgsubr
          2 7 hintmask 00000000
          hintmask 01011000
          -5 callsubr
          hintmask 01101000
          -77 callsubr
          hintmask 01011000
          0 callsubr
          hintmask 10000100
          30 -1118 -77 callgsubr
        </CharString>
        <CharString name="registered">
          2 715 106 296 96 197 95 143 105 hstem
          97 128 194 101 296 104 154 128 vstem
          643 715 rmoveto
          311 248 219 310 299 -248 210 -298 -311 -248 -219 -311 -298 248 -210 298 hvcurveto
          13 106 rmoveto
          -238 -193 187 236 230 188 174 230 238 193 -188 -237 -230 -188 -172 -230 hvcurveto
          -237 150 rmoveto
          101 146 120 hlineto
          18 18 1 1 18 hvcurveto
          79 -148 rlineto
          113 hlineto
          -90 170 rlineto
          74 29 50 55 93 vvcurveto
          144 -125 43 -144 vhcurveto
          -232 hlineto
          101 -292 rmoveto
          197 119 vlineto
          88 89 -10 -88 -88 -79 -11 -88 hvcurveto
          endchar
        </CharString>
        <CharString name="ring">
          -359 1143 101 216 101 hstem
          242 116 223 116 vstem
          462 1143 -70 callsubr
        </CharString>
        <CharString name="ring.cap">
          -359 1514 103 200 103 hstem
          238 118 227 118 vstem
          462 1514 -69 callgsubr
        </CharString>
        <CharString name="s">
          -309 -20 151 738 151 hstem
          115 190 409 189 vstem
          73 107 rmoveto
          -84 101 165 -43 150 hhcurveto
          214 200 96 214 hvcurveto
          342 -598 -65 184 vvcurveto
          82 92 36 82 116 129 -51 -44 70 vhcurveto
          74 139 rlineto
          62 -88 -135 45 -148 hhcurveto
          -200 -182 -91 -188 hvcurveto
          -334 599 62 -192 vvcurveto
          -104 -103 -42 -104 -120 -142 46 68 -101 vhcurveto
          endchar
        </CharString>
        <CharString name="section">
          -183 -20 166 1124 -11 callgsubr
          -132 196 320 196 -132 14 callsubr
          hintmask 11100100
          196 116 rmoveto
          -88 106 115 -48 131 hhcurveto
          hintmask 11101000
          188 177 131 188 68 -23 50 -37 40 hvcurveto
          hintmask 11010100
          74 50 50 86 93 342 -580 -91 210 vvcurveto
          80 71 43 80 89 102 13 callgsubr
          88 -106 -115 48 -131 hhcurveto
          -188 -177 -131 -188 -68 23 -51 36 -39 hvcurveto
          hintmask 11101000
          -73 -51 -50 -86 -92 -342 580 91 -210 vvcurveto
          -80 -71 -43 -80 -89 -102 42 76 -86 vhcurveto
          44 496 rmoveto
          52 21 41 29 24 vhcurveto
          hintmask 11100100
          170 -76 228 -14 -131 vvcurveto
          -52 -21 -41 -29 -24 vhcurveto
          hintmask 11101000
          -170 76 -228 13 132 vvcurveto
          endchar
        </CharString>
        <CharString name="semicolon">
          -770 567 247 hstemhm
          158 248 -195 14 callsubr
          hintmask 11000000
          283 567 -90 callgsubr
          -124 -445 rmoveto
          hintmask 10100000
          -84 callgsubr
          91 -51 rcurveline
          hintmask 11000000
          -92 callgsubr
          vhcurveto
          endchar
        </CharString>
        <CharString name="seven">
          -192 11 callsubr
          61 997 vstem
          247 hmoveto
          205 hlineto
          60 354 320 657 226 237 rrcurveto
          168 -997 -168 509 vlineto
          129 157 10 0 hvcurveto
          -201 -223 -316 -601 -92 -434 rrcurveto
          endchar
        </CharString>
        <CharString name="six">
          121 -27 callgsubr
          578 168 380 164 hstem
          138 196 762 -7 callsubr
          138 601 rmoveto
          -374 221 -247 374 301 258 196 301 278 -225 137 -278 -167 -164 -48 -65 -111 vhcurveto
          75 511 368 61 380 -152 48 159 rcurveline
          -403 174 -677 -62 -869 vvcurveto
          196 -25 rmoveto
          17 vlineto
          68 94 170 63 173 hhcurveto
          178 147 -99 -178 -188 -157 -113 -188 -256 -161 174 256 hvcurveto
          endchar
        </CharString>
        <CharString name="slash">
          5 callgsubr
          73 -467 rmoveto
          175 hlineto
          676 2028 rlineto
          -175 hlineto
          endchar
        </CharString>
        <CharString name="space">
          -713 endchar
        </CharString>
        <CharString name="sterling">
          -89 18 callsubr
          422 154 539 154 hstemhm
          288 187 -124 186 hintmask 00000000
          hintmask 11110000
          145 hmoveto
          946 168 -516 hlineto
          -87 -94 -11 -13 -80 hvcurveto
          hintmask 11101000
          171 115 52 137 138 vvcurveto
          18 -1 19 -2 19 vhcurveto
          330 154 hlineto
          hintmask 11110000
          -358 hlineto
          -15 76 -16 82 96 vvcurveto
          164 64 121 164 81 88 -25 -49 74 vhcurveto
          65 136 rlineto
          49 -56 -130 43 -112 hhcurveto
          -278 -147 -191 -278 -83 12 -74 13 -67 hvcurveto
          -171 -154 hlineto
          hintmask 11101000
          201 hlineto
          5 -30 3 -28 -28 vvcurveto
          -129 -53 -116 -170 -93 vhcurveto
          endchar
        </CharString>
        <CharString name="t">
          -603 17 -21 850 19 callgsubr
          165 190 vstem
          165 414 rmoveto
          -254 76 -198 296 38 vhcurveto
          29 135 rlineto
          -167 20 -44 59 228 vvcurveto
          404 286 154 -286 155 -51 vlineto
          -246 -185 rlineto
          -124 107 vlineto
          endchar
        </CharString>
        <CharString name="thorn">
          -28 -446 -21 447 -9 callsubr
          -33 callsubr
          -142 -110 -49 -54 -72 hvcurveto
          645 -190 -2029 190 vlineto
          640 vmoveto
          550 vlineto
          -30 callsubr
          13 callsubr
        </CharString>
        <CharString name="three">
          -27 -3 callsubr
          891 9 callgsubr
          hintmask 11101000
          112 89 rmoveto
          -70 113 172 -39 178 hhcurveto
          272 286 154 272 155 -84 129 -196 50 hvcurveto
          1 9 rlineto
          hintmask 11110000
          154 54 79 133 132 vvcurveto
          242 -221 126 -242 -139 -196 -41 -58 -117 vhcurveto
          51 -159 rlineto
          46 87 164 44 121 hhcurveto
          150 146 -62 -150 -184 -176 -64 -184 -50 -146 6 0 hvcurveto
          -181 vlineto
          hintmask 11101000
          324 37 274 -68 -205 vvcurveto
          -164 -165 -85 -164 -156 -175 46 61 -108 vhcurveto
          endchar
        </CharString>
        <CharString name="threequarters">
          684 -63 151 760 -17 callsubr
          742 177 50 127 hintmask 10000011
          138 -73 callsubr
          hintmask 00000000
          -1403 829 -33 callgsubr
          hintmask 01110100
          -65 callsubr
          hintmask 01111000
          -23 callsubr
        </CharString>
        <CharString name="threesuperior">
          -358 848 -17 callsubr
          hintmask 00000000
          hintmask 11101000
          125 917 -33 callgsubr
          hintmask 11110000
          -65 callsubr
          hintmask 11101000
          -23 callsubr
        </CharString>
        <CharString name="tilde">
          -699 1199 -14 callgsubr
          -67 733 hintmask 00000000
          hintmask 01100000
          30 1199 -69 callsubr
          hintmask 10100000
          -87 callsubr
          hintmask 01100000
          -34 callgsubr
        </CharString>
        <CharString name="tilde.cap">
          -699 1573 -4 callsubr
          -103 783 hintmask 00000000
          hintmask 01100000
          2 1573 -64 callgsubr
          hintmask 10100000
          -86 callgsubr
          hintmask 01100000
          -35 callsubr
        </CharString>
        <CharString name="two">
          -48 0 175 1093 168 hstem
          889 -7 callsubr
          148 hmoveto
          974 176 hlineto
          -714 -1 298 251 rlineto
          203 171 176 220 197 vvcurveto
          264 -189 158 -282 -139 -215 -57 -52 -98 vhcurveto
          51 -159 rlineto
          36 68 183 64 121 hhcurveto
          206 98 -82 -184 -150 -157 -179 -209 -181 hvcurveto
          -375 -324 rlineto
          endchar
        </CharString>
        <CharString name="twosuperior">
          -335 866 152 -5 -20 642 144 hstemhm
          631 175 hintmask 00000000
          hintmask 10110000
          190 866 -74 callgsubr
          hintmask 01110000
          -216 -183 rlineto
          endchar
        </CharString>
        <CharString name="u">
          -2 -50 callsubr
          -10 callsubr
          568 -55 callgsubr
          hintmask 10111000
          -83 callsubr
          hintmask 01111000
          -56 callgsubr
          hintmask 10111000
          -83 callgsubr
          endchar
        </CharString>
        <CharString name="uacute">
          -2 -50 callsubr
          165 376 -10 callsubr
          159 449 -40 -96 callgsubr
          442 145 -89 callgsubr
        </CharString>
        <CharString name="ucircumflex">
          -2 -50 callsubr
          165 381 -10 callsubr
          -15 618 -35 -96 callgsubr
          266 145 -95 callgsubr
        </CharString>
        <CharString name="udieresis">
          -2 -50 callsubr
          242 212 -10 callsubr
          -8 -23 callgsubr
          -28 -55 callgsubr
          hintmask 10101001
          -83 callsubr
          hintmask 01101001
          -56 callgsubr
          hintmask 10101001
          -83 callgsubr
          hintmask 00010110
          680 222 -103 callgsubr
        </CharString>
        <CharString name="ugrave">
          -2 -50 callsubr
          168 377 -10 callsubr
          -30 447 151 -96 callgsubr
          516 148 -74 callsubr
        </CharString>
        <CharString name="underscore">
          -61 -154 19 callgsubr
          107 1022 vstem
          107 hmoveto
          -154 1022 154 vlineto
          endchar
        </CharString>
        <CharString name="uni0001">
          endchar
        </CharString>
        <CharString name="uni0002">
          endchar
        </CharString>
        <CharString name="uni0003">
          endchar
        </CharString>
        <CharString name="uni0004">
          endchar
        </CharString>
        <CharString name="uni0005">
          endchar
        </CharString>
        <CharString name="uni0006">
          endchar
        </CharString>
        <CharString name="uni0007">
          endchar
        </CharString>
        <CharString name="uni0008">
          endchar
        </CharString>
        <CharString name="uni0009">
          endchar
        </CharString>
        <CharString name="uni0010">
          endchar
        </CharString>
        <CharString name="uni0011">
          endchar
        </CharString>
        <CharString name="uni0012">
          endchar
        </CharString>
        <CharString name="uni0013">
          endchar
        </CharString>
        <CharString name="uni0014">
          endchar
        </CharString>
        <CharString name="uni0015">
          endchar
        </CharString>
        <CharString name="uni0016">
          endchar
        </CharString>
        <CharString name="uni0017">
          endchar
        </CharString>
        <CharString name="uni0018">
          endchar
        </CharString>
        <CharString name="uni0019">
          endchar
        </CharString>
        <CharString name="uni00AD">
          -32 callgsubr
        </CharString>
        <CharString name="v">
          -240 0 219 781 -20 hstem
          40 977 vstem
          430 hmoveto
          197 hlineto
          390 1000 rlineto
          -182 hlineto
          -210 -538 rlineto
          -35 -89 -47 -154 0 vvcurveto
          -12 hlineto
          0 -42 136 -43 110 vhcurveto
          -209 535 rlineto
          -197 hlineto
          endchar
        </CharString>
        <CharString name="w">
          316 0 243 757 -20 hstem
          62 1489 vstem
          392 hmoveto
          174 hlineto
          235 734 246 -734 rlineto
          174 hlineto
          330 1000 rlineto
          -174 hlineto
          -144 -436 rlineto
          -47 -141 -46 -180 0 vvcurveto
          -11 hlineto
          0 -48 193 -42 131 vhcurveto
          -138 433 rlineto
          -189 hlineto
          -142 -442 rlineto
          -38 -119 -48 -196 0 vvcurveto
          -11 hlineto
          0 -50 210 -36 114 vhcurveto
          -136 433 rlineto
          -189 hlineto
          endchar
        </CharString>
        <CharString name="x">
          -228 -19 callgsubr
          hstem
          46 977 vstem
          46 hmoveto
          202 hlineto
          280 376 282 -376 rlineto
          213 hlineto
          -382 505 372 495 rlineto
          -202 hlineto
          -270 -362 -272 362 rlineto
          -213 hlineto
          372 -491 rlineto
          endchar
        </CharString>
        <CharString name="y">
          -15 callgsubr
          hstem
          40 977 vstem
          -99 callsubr
          endchar
        </CharString>
        <CharString name="yacute">
          -15 callgsubr
          165 18 callgsubr
          40 977 -607 449 hintmask 11010000
          -99 callsubr
          hintmask 00101000
          424 1444 -89 callgsubr
        </CharString>
        <CharString name="ydieresis">
          -15 callgsubr
          242 212 hstemhm
          40 977 -791 -23 callgsubr
          hintmask 11010000
          -99 callsubr
          hintmask 00101100
          645 1521 -103 callgsubr
        </CharString>
        <CharString name="yen">
          -6 21 -21 275 154 146 154 687 -20 hstem
          559 7 callsubr
          185 275 rmoveto
          374 -275 185 275 363 154 -363 146 363 154 -287 hlineto
          434 687 -40 callsubr
          441 -687 rlineto
          -293 -154 374 -146 -374 hlineto
          endchar
        </CharString>
        <CharString name="z">
          -343 0 148 704 148 hstem
          86 790 vstem
          86 hmoveto
          790 148 -578 hlineto
          560 704 rlineto
          148 -752 -148 540 vlineto
          -560 -704 rlineto
          endchar
        </CharString>
        <CharString name="zero">
          365 -65 callgsubr
          hstem
          -35 callgsubr
          996 -7 callsubr
          -49 callsubr
          -418 267 -295 7 callgsubr
          267 307 436 418 -267 295 -418 -436 -267 -307 -436 vhcurveto
          -17 callgsubr
          314 175 233 314 324 183 -253 -324 -314 -175 -233 6 callsubr
          -183 253 324 vhcurveto
          endchar
        </CharString>
      <CharString index="0">
        59 47 47 59 59 -47 47 -59 -59 -47 -47 -59 -59 47 -47 59 hvcurveto
        return
      </CharString>
      <CharString index="1">
        294 400 rmoveto
        -82 callgsubr
        -53 callsubr
        -334 159 -184 334 -43 callsubr
        vhcurveto
        -88 callgsubr
        -8 147 rmoveto
        -93 callsubr
        return
      </CharString>
      <CharString index="2">
        34 -90 71 -55 139 17 28 123 rcurveline
        -66 callsubr
        319 vlineto
        252 -188 107 -252 -99 -137 -20 -50 -102 vhcurveto
        -96 callsubr
        return
      </CharString>
      <CharString index="3">
        -55 callgsubr
        hintmask 10110101
        -93 callgsubr
        hintmask 01110101
        -105 callgsubr
        hintmask 10110101
        -104 callsubr
        hintmask 00001010
        return
      </CharString>
      <CharString index="4">
        -100 callsubr
        -392 -102 callsubr
      </CharString>
      <CharString index="5">
        -12 callsubr
        368 hlineto
        72 69 5 10 66 hvcurveto
        243 -493 rlineto
        215 hlineto
        -269 545 rlineto
        174 72 116 137 226 vvcurveto
        352 -283 84 -375 vhcurveto
        2 callsubr
        -770 rmoveto
        602 367 vlineto
        252 239 -36 -244 -264 -201 -58 -264 hvcurveto
        return
      </CharString>
      <CharString index="6">
        hintmask 00000000
        hintmask 11010100
        -103 callsubr
        hintmask 11100100
        -97 callsubr
        return
      </CharString>
      <CharString index="7">
        177 hintmask 11101010
        -106 callgsubr
        hintmask 00010100
        return
      </CharString>
      <CharString index="8">
        -100 callsubr
        -492 -102 callsubr
      </CharString>
      <CharString index="9">
        196 hintmask 11010100
        -107 callsubr
        hintmask 00101000
        return
      </CharString>
      <CharString index="10">
        -61 callgsubr
        212 157 -155 -212 -60 callsubr
        return
      </CharString>
      <CharString index="11">
        -55 callgsubr
        hintmask 10101010
        -83 callsubr
        hintmask 01101010
        -56 callgsubr
        hintmask 10101010
        -83 callgsubr
        hintmask 00010100
        return
      </CharString>
      <CharString index="12">
        rmoveto
        213 185 221 -185 93 89 -308 292 -310 -294 rlineto
        endchar
      </CharString>
      <CharString index="13">
        73 50 50 73 75 -50 49 -73 -75 -50 -49 -75 return
      </CharString>
      <CharString index="14">
        112 -60 callgsubr
        178 186 130 92 56 69 vhcurveto
        return
      </CharString>
      <CharString index="15">
        68 61 136 192 134 vvcurveto
        69 -51 57 -73 -67 -57 -43 -69 return
      </CharString>
      <CharString index="16">
        -41 callgsubr
        1077 168 -892 530 777 168 -777 382 872 168 -1057 hlineto
        return
      </CharString>
      <CharString index="17">
        rmoveto
        -94 callgsubr
        -73 50 -50 75 hvcurveto
        return
      </CharString>
      <CharString index="18">
        rmoveto
        356 260 -116 116 -333 -286 rlineto
        endchar
      </CharString>
      <CharString index="19">
        -76 callsubr
        -51 callgsubr
        return
      </CharString>
      <CharString index="20">
        -92 callgsubr
        -84 callgsubr
        rrcurveto
        return
      </CharString>
      <CharString index="21">
        186 73 173 0 hvcurveto
        -98 62 rlineto
        0 -49 -88 -80 vhcurveto
        -60 -112 88 -108 hhcurveto
        return
      </CharString>
      <CharString index="22">
        hintmask 11101000
        -91 callgsubr
        return
      </CharString>
      <CharString index="23">
        -42 29 -34 23 -14 vhcurveto
        -5 -78 -58 -133 -36 -49 return
      </CharString>
      <CharString index="24">
        -82 -55 -116 -59 -134 hhcurveto
        -212 -51 141 212 hvcurveto
        507 1 callgsubr
        return
      </CharString>
      <CharString index="25">
        696 hlineto
        9 55 11 77 59 vvcurveto
        285 -171 144 -232 return
      </CharString>
      <CharString index="26">
        -17 callgsubr
        -79 callsubr
        return
      </CharString>
      <CharString index="27">
        rmoveto
        -73 50 -50 75 -94 callgsubr
        vhcurveto
        endchar
      </CharString>
      <CharString index="28">
        76 -82 72 -49 155 20 29 135 rcurveline
        -93 6 -70 45 -49 52 -280 302 rcurveline
        470 460 rlineto
        -222 hlineto
        -449 -440 rlineto
        return
      </CharString>
      <CharString index="29">
        -436 -347 -307 -436 return
      </CharString>
      <CharString index="30">
        rmoveto
        26 -117 -43 -117 -52 -93 96 -41 rcurveline
        74 84 96 151 -35 152 rrcurveto
        endchar
      </CharString>
      <CharString index="31">
        95 492 rmoveto
        -306 235 -206 306 return
      </CharString>
      <CharString index="32">
        -24 callgsubr
        -72 callgsubr
        -79 callsubr
        -54 callgsubr
        -436 -347 -307 -436 hvcurveto
        endchar
      </CharString>
      <CharString index="33">
        rmoveto
        629 152 -404 hlineto
        173 145 rlineto
        129 108 89 104 136 vvcurveto
        186 -154 82 -186 -97 -120 -32 -41 -82 vhcurveto
        43 -132 rlineto
        34 66 95 27 77 hhcurveto
        92 91 -39 -92 -96 -91 -98 -134 -114 hvcurveto
        return
      </CharString>
      <CharString index="34">
        rmoveto
        66 109 -485 211 -84 -139 rlineto
        endchar
      </CharString>
      <CharString index="35">
        -324 -263 253 324 return
      </CharString>
      <CharString index="36">
        -770 -279 -12 callgsubr
        vstem
        159 122 -81 callsubr
      </CharString>
      <CharString index="37">
        174 235 45 272 14 vhcurveto
        return
      </CharString>
      <CharString index="38">
        rmoveto
        128 111 78 128 130 -95 70 -130 -128 -110 -81 -128 -130 94 -67 130 hvcurveto
        14 103 rmoveto
        -69 -51 34 69 59 47 38 59 69 52 -37 -69 -59 -48 -35 -59 hvcurveto
        endchar
      </CharString>
      <CharString index="39">
        168 530 168 382 168 return
      </CharString>
      <CharString index="40">
        -50 -102 -95 -24 -117 hhcurveto
        -204 -118 166 204 190 114 164 190 107 99 -33 -51 68 hvcurveto
        66 149 rlineto
        69 -94 -102 22 -126 hhcurveto
        -53 callsubr
        hvcurveto
        return
      </CharString>
      <CharString index="41">
        184 hmoveto
        -61 callsubr
        return
      </CharString>
      <CharString index="42">
        -27 callgsubr
        1124 166 return
      </CharString>
      <CharString index="43">
        rmoveto
        0 59 88 80 vhcurveto
        60 112 -88 108 hhcurveto
        return
      </CharString>
      <CharString index="44">
        122 -92 callsubr
      </CharString>
      <CharString index="45">
        328 rmoveto
        -188 45 -169 227 29 vhcurveto
        28 123 rlineto
        -66 callsubr
        return
      </CharString>
      <CharString index="46">
        200 151 156 200 return
      </CharString>
      <CharString index="47">
        263 rmoveto
        -178 162 -105 return
      </CharString>
      <CharString index="48">
        -314 -255 -233 -314 return
      </CharString>
      <CharString index="49">
        184 1 callsubr
        return
      </CharString>
      <CharString index="50">
        51 -10 66 -26 -34 vvcurveto
        -42 -61 -51 -54 -39 vhcurveto
        74 -75 rlineto
        98 49 120 97 91 vvcurveto
        return
      </CharString>
      <CharString index="51">
        29 -97 rlineto
        145 -36 callsubr
        -719 hlineto
        return
      </CharString>
      <CharString index="52">
        190 hintmask 00000000
        return
      </CharString>
      <CharString index="53">
        176 151 -59 -89 100 hvcurveto
        93 148 rlineto
        103 -131 -176 63 -195 hhcurveto
        return
      </CharString>
      <CharString index="54">
        170 79 69 121 220 vvcurveto
        1065 1 callgsubr
        return
      </CharString>
      <CharString index="55">
        436 347 307 436 return
      </CharString>
      <CharString index="56">
        -185 -99 99 161 -29 hvcurveto
        return
      </CharString>
      <CharString index="57">
        -212 -157 152 212 return
      </CharString>
      <CharString index="58">
        hintmask 11001000
        -66 callgsubr
        return
      </CharString>
      <CharString index="59">
        -219 -55 callgsubr
        hintmask 11110000
        -63 callsubr
        hintmask 11101000
        -96 return
      </CharString>
      <CharString index="60">
        184 185 return
      </CharString>
      <CharString index="61">
        194 40 160 194 70 77 -20 -29 56 vhcurveto
        45 151 rlineto
        31 -63 -88 23 -79 hhcurveto
        -310 -133 -212 -310 hvcurveto
        return
      </CharString>
      <CharString index="62">
        hintmask 11001000
        -56 callsubr
        return
      </CharString>
      <CharString index="63">
        -744 -68 callsubr
        return
      </CharString>
      <CharString index="64">
        -20 -48 callsubr
        return
      </CharString>
      <CharString index="65">
        -28 callgsubr
        260 147 return
      </CharString>
      <CharString index="66">
        184 hmoveto
        return
      </CharString>
      <CharString index="67">
        190 -45 callgsubr
        hintmask 00110000
        return
      </CharString>
      <CharString index="68">
        -167 rmoveto
        121 -100 1617 1928 -121 100 rlineto
        return
      </CharString>
      <CharString index="69">
        295 -44 callsubr
        return
      </CharString>
      <CharString index="70">
        184 -85 -20 callsubr
        80 -129 rlineto
        -53 callgsubr
        return
      </CharString>
      <CharString index="71">
        -57 callgsubr
        76 -52 52 -85 21 vhcurveto
        return
      </CharString>
      <CharString index="72">
        137 196 return
      </CharString>
      <CharString index="73">
        -186 -74 -184 0 hvcurveto
        endchar
      </CharString>
      <CharString index="74">
        rmoveto
        -44 72 109 -25 114 hhcurveto
        184 182 88 184 110 -64 82 -115 29 hvcurveto
        6 vlineto
        return
      </CharString>
      <CharString index="75">
        -161 3 callsubr
        207 722 vstem
        207 515 rmoveto
        722 154 -722 hlineto
        endchar
      </CharString>
      <CharString index="76">
        314 -142 187 -314 return
      </CharString>
      <CharString index="77">
        -21 1000 -20 return
      </CharString>
      <CharString index="78">
        -58 callgsubr
        501 hlineto
        361 -390 rlineto
        return
      </CharString>
      <CharString index="79">
        -20 160 return
      </CharString>
      <CharString index="80">
        -20 166 return
      </CharString>
      <CharString index="81">
        rmoveto
        -423 373 -93 -100 296 -318 -301 -337 96 -91 425 413 rlineto
        return
      </CharString>
      <CharString index="82">
        100 62 68 100 100 64 -72 -100 -100 -62 -66 -100 return
      </CharString>
      <CharString index="83">
        -72 138 rlineto
        -82 -102 -183 -65 -158 hhcurveto
        return
      </CharString>
      <CharString index="84">
        212 180 212 return
      </CharString>
      <CharString index="85">
        -62 callsubr
        hstem
        -35 callgsubr
        1156 -7 callsubr
        return
      </CharString>
      <CharString index="86">
        rmoveto
        310 294 -91 87 -213 -185 -221 185 -93 -89 rlineto
        endchar
      </CharString>
      <CharString index="87">
        rmoveto
        134 hlineto
        30 477 rlineto
        -194 hlineto
        return
      </CharString>
      <CharString index="88">
        21 -30 callgsubr
        return
      </CharString>
      <CharString index="89">
        -21 860 160 return
      </CharString>
      <CharString index="90">
        196 30 rmoveto
        return
      </CharString>
      <CharString index="91">
        185 386 369 168 -369 386 -185 -386 -368 return
      </CharString>
      <CharString index="92">
        -240 -487 169 1318 -20 return
      </CharString>
      <CharString index="93">
        144 -33 144 hstemhm
        return
      </CharString>
      <CharString index="94">
        190 12 rmoveto
        return
      </CharString>
      <CharString index="95">
        513 3 callgsubr
        return
      </CharString>
      <CharString index="96">
        166 -37 callsubr
        return
      </CharString>
      <CharString index="97">
        hstemhm
        -42 callsubr
        return
      </CharString>
      <CharString index="98">
        hhcurveto
        204 25 -149 -204 9 callsubr
        return
      </CharString>
      <CharString index="99">
        -53 callgsubr
        endchar
      </CharString>
      <CharString index="100">
        -739 -464 -21 1485 -20 return
      </CharString>
      <CharString index="101">
        hstem
        193 167 vstem
        193 return
      </CharString>
      <CharString index="102">
        -168 -133 -125 -168 return
      </CharString>
      <CharString index="103">
        4 callgsubr
        vstem
        184 return
      </CharString>
      <CharString index="104">
        1436 -20 hstem
        return
      </CharString>
      <CharString index="105">
        -21 827 193 -20 -20 -10 callgsubr
        return
      </CharString>
      <CharString index="106">
        -699 1535 351 hstem
        -91 788 vstem
        return
      </CharString>
      <CharString index="107">
        -68 callsubr
        hstem
        return
      </CharString>
      <CharString index="108">
        -190 vlineto
        return
      </CharString>
      <CharString index="109">
        -210 -330 hvcurveto
        -13 callgsubr
        232 return
      </CharString>
      <CharString index="110">
        hstem
        159 248 return
      </CharString>
      <CharString index="111">
        hstem
        -42 callsubr
        return
      </CharString>
      <CharString index="112">
        -300 -446 -21 hstem
        73 851 vstem
        return
      </CharString>
      <CharString index="113">
        137 326 137 return
      </CharString>
      <CharString index="114">
        418 436 return
      </CharString>
      <CharString index="115">
        rmoveto
        -290 186 -210 290 return
      </CharString>
      <CharString index="116">
        196 -154 200 hintmask 00000000
        return
      </CharString>
      <CharString index="117">
        247 hstem
        158 248 vstem
        return
      </CharString>
      <CharString index="118">
        -7 callsubr
        15 callsubr
        return
      </CharString>
      <CharString index="119">
        rmoveto
        922 168 -922 hlineto
        return
      </CharString>
      <CharString index="120">
        -42 -76 86 vhcurveto
        93 148 rlineto
        return
      </CharString>
      <CharString index="121">
        190 hintmask 0000000000000000
        return
      </CharString>
      <CharString index="122">
        177 hintmask 00000000
        return
      </CharString>
      <CharString index="123">
        hstemhm
        95 191 return
      </CharString>
      <CharString index="124">
        hstem
        95 190 return
      </CharString>
      <CharString index="125">
        376 hstemhm
        return
      </CharString>
      <CharString index="126">
        154 hstem
        return
      </CharString>
</ttFont>
